<svg viewBox="0 0 330 200" xmlns="http://www.w3.org/2000/svg"><g><g><g><g><g><line x1="58" y1="178" x2="53" y2="178" style="visibility: inherit;" fill="rgb(0, 0, 0)" stroke="rgb(204, 204, 204)" stroke-width="1px"></line><line x1="58" y1="164.30769230769232" x2="53" y2="164.30769230769232" style="visibility: inherit;" fill="rgb(0, 0, 0)" stroke="rgb(204, 204, 204)" stroke-width="1px"></line><line x1="58" y1="150.6153846153846" x2="53" y2="150.6153846153846" style="visibility: inherit;" fill="rgb(0, 0, 0)" stroke="rgb(204, 204, 204)" stroke-width="1px"></line><line x1="58" y1="136.9230769230769" x2="53" y2="136.9230769230769" style="visibility: inherit;" fill="rgb(0, 0, 0)" stroke="rgb(204, 204, 204)" stroke-width="1px"></line><line x1="58" y1="123.23076923076923" x2="53" y2="123.23076923076923" style="visibility: inherit;" fill="rgb(0, 0, 0)" stroke="rgb(204, 204, 204)" stroke-width="1px"></line><line x1="58" y1="109.53846153846155" x2="53" y2="109.53846153846155" style="visibility: inherit;" fill="rgb(0, 0, 0)" stroke="rgb(204, 204, 204)" stroke-width="1px"></line><line x1="58" y1="95.84615384615385" x2="53" y2="95.84615384615385" style="visibility: inherit;" fill="rgb(0, 0, 0)" stroke="rgb(204, 204, 204)" stroke-width="1px"></line><line x1="58" y1="82.15384615384616" x2="53" y2="82.15384615384616" style="visibility: inherit;" fill="rgb(0, 0, 0)" stroke="rgb(204, 204, 204)" stroke-width="1px"></line><line x1="58" y1="68.46153846153848" x2="53" y2="68.46153846153848" style="visibility: inherit;" fill="rgb(0, 0, 0)" stroke="rgb(204, 204, 204)" stroke-width="1px"></line><line x1="58" y1="54.769230769230774" x2="53" y2="54.769230769230774" style="visibility: inherit;" fill="rgb(0, 0, 0)" stroke="rgb(204, 204, 204)" stroke-width="1px"></line><line x1="58" y1="41.076923076923094" x2="53" y2="41.076923076923094" style="visibility: inherit;" fill="rgb(0, 0, 0)" stroke="rgb(204, 204, 204)" stroke-width="1px"></line><line x1="58" y1="27.384615384615387" x2="53" y2="27.384615384615387" style="visibility: inherit;" fill="rgb(0, 0, 0)" stroke="rgb(204, 204, 204)" stroke-width="1px"></line><line x1="58" y1="13.69230769230768" x2="53" y2="13.69230769230768" style="visibility: inherit;" fill="rgb(0, 0, 0)" stroke="rgb(204, 204, 204)" stroke-width="1px"></line><line x1="58" y1="0" x2="53" y2="0" style="visibility: inherit;" fill="rgb(0, 0, 0)" stroke="rgb(204, 204, 204)" stroke-width="1px"></line></g><g transform="translate(48, 0)"><text x="0" y="178" dx="0em" dy="0.3em" style="text-anchor: end; visibility: hidden; font-family: &quot;Helvetica Neue&quot;, sans-serif; font-size: 12px; font-weight: 200;" fill="rgb(50, 49, 63)" stroke="none" stroke-width="1px">-0.1</text><text x="0" y="164.30769230769232" dx="0em" dy="0.3em" style="text-anchor: end; visibility: inherit; font-family: &quot;Helvetica Neue&quot;, sans-serif; font-size: 12px; font-weight: 200;" fill="rgb(50, 49, 63)" stroke="none" stroke-width="1px">0</text><text x="0" y="150.6153846153846" dx="0em" dy="0.3em" style="text-anchor: end; visibility: hidden; font-family: &quot;Helvetica Neue&quot;, sans-serif; font-size: 12px; font-weight: 200;" fill="rgb(50, 49, 63)" stroke="none" stroke-width="1px">0.1</text><text x="0" y="136.9230769230769" dx="0em" dy="0.3em" style="text-anchor: end; visibility: inherit; font-family: &quot;Helvetica Neue&quot;, sans-serif; font-size: 12px; font-weight: 200;" fill="rgb(50, 49, 63)" stroke="none" stroke-width="1px">0.2</text><text x="0" y="123.23076923076923" dx="0em" dy="0.3em" style="text-anchor: end; visibility: hidden; font-family: &quot;Helvetica Neue&quot;, sans-serif; font-size: 12px; font-weight: 200;" fill="rgb(50, 49, 63)" stroke="none" stroke-width="1px">0.3</text><text x="0" y="109.53846153846155" dx="0em" dy="0.3em" style="text-anchor: end; visibility: inherit; font-family: &quot;Helvetica Neue&quot;, sans-serif; font-size: 12px; font-weight: 200;" fill="rgb(50, 49, 63)" stroke="none" stroke-width="1px">0.4</text><text x="0" y="95.84615384615385" dx="0em" dy="0.3em" style="text-anchor: end; visibility: hidden; font-family: &quot;Helvetica Neue&quot;, sans-serif; font-size: 12px; font-weight: 200;" fill="rgb(50, 49, 63)" stroke="none" stroke-width="1px">0.5</text><text x="0" y="82.15384615384616" dx="0em" dy="0.3em" style="text-anchor: end; visibility: inherit; font-family: &quot;Helvetica Neue&quot;, sans-serif; font-size: 12px; font-weight: 200;" fill="rgb(50, 49, 63)" stroke="none" stroke-width="1px">0.6</text><text x="0" y="68.46153846153848" dx="0em" dy="0.3em" style="text-anchor: end; visibility: hidden; font-family: &quot;Helvetica Neue&quot;, sans-serif; font-size: 12px; font-weight: 200;" fill="rgb(50, 49, 63)" stroke="none" stroke-width="1px">0.7</text><text x="0" y="54.769230769230774" dx="0em" dy="0.3em" style="text-anchor: end; visibility: inherit; font-family: &quot;Helvetica Neue&quot;, sans-serif; font-size: 12px; font-weight: 200;" fill="rgb(50, 49, 63)" stroke="none" stroke-width="1px">0.8</text><text x="0" y="41.076923076923094" dx="0em" dy="0.3em" style="text-anchor: end; visibility: hidden; font-family: &quot;Helvetica Neue&quot;, sans-serif; font-size: 12px; font-weight: 200;" fill="rgb(50, 49, 63)" stroke="none" stroke-width="1px">0.9</text><text x="0" y="27.384615384615387" dx="0em" dy="0.3em" style="text-anchor: end; visibility: inherit; font-family: &quot;Helvetica Neue&quot;, sans-serif; font-size: 12px; font-weight: 200;" fill="rgb(50, 49, 63)" stroke="none" stroke-width="1px">1</text><text x="0" y="13.69230769230768" dx="0em" dy="0.3em" style="text-anchor: end; visibility: hidden; font-family: &quot;Helvetica Neue&quot;, sans-serif; font-size: 12px; font-weight: 200;" fill="rgb(50, 49, 63)" stroke="none" stroke-width="1px">1.1</text><text x="0" y="0" dx="0em" dy="0.3em" style="text-anchor: end; visibility: hidden; font-family: &quot;Helvetica Neue&quot;, sans-serif; font-size: 12px; font-weight: 200;" fill="rgb(50, 49, 63)" stroke="none" stroke-width="1px">1.2</text></g><line x1="58" y1="0" x2="58" y2="178" fill="rgb(0, 0, 0)" stroke="rgb(204, 204, 204)" stroke-width="1px"></line></g></g><g transform="translate(58, 0)" clip-path="url(#clip_0)"><clipPath id="clip_0"><rect width="272" height="178"></rect></clipPath><g><g><g><line x1="0" y1="0" x2="0" y2="178" fill="rgb(0, 0, 0)" stroke="rgb(60, 60, 60)" stroke-width="1px" opacity="0.25"></line><line x1="22.666666666666664" y1="0" x2="22.666666666666664" y2="178" fill="rgb(0, 0, 0)" stroke="rgb(60, 60, 60)" stroke-width="1px" opacity="0.25"></line><line x1="45.33333333333333" y1="0" x2="45.33333333333333" y2="178" fill="rgb(0, 0, 0)" stroke="rgb(60, 60, 60)" stroke-width="1px" opacity="0.25"></line><line x1="68" y1="0" x2="68" y2="178" fill="rgb(0, 0, 0)" stroke="rgb(60, 60, 60)" stroke-width="1px" opacity="0.25"></line><line x1="90.66666666666666" y1="0" x2="90.66666666666666" y2="178" fill="rgb(0, 0, 0)" stroke="rgb(60, 60, 60)" stroke-width="1px" opacity="0.25"></line><line x1="113.33333333333334" y1="0" x2="113.33333333333334" y2="178" fill="rgb(0, 0, 0)" stroke="rgb(60, 60, 60)" stroke-width="1px" opacity="0.25"></line><line x1="136" y1="0" x2="136" y2="178" fill="rgb(0, 0, 0)" stroke="rgb(60, 60, 60)" stroke-width="1px" opacity="0.25"></line><line x1="158.66666666666669" y1="0" x2="158.66666666666669" y2="178" fill="rgb(0, 0, 0)" stroke="rgb(60, 60, 60)" stroke-width="1px" opacity="0.25"></line><line x1="181.33333333333331" y1="0" x2="181.33333333333331" y2="178" fill="rgb(0, 0, 0)" stroke="rgb(60, 60, 60)" stroke-width="1px" opacity="0.25"></line><line x1="204" y1="0" x2="204" y2="178" fill="rgb(0, 0, 0)" stroke="rgb(60, 60, 60)" stroke-width="1px" opacity="0.25"></line><line x1="226.66666666666669" y1="0" x2="226.66666666666669" y2="178" fill="rgb(0, 0, 0)" stroke="rgb(60, 60, 60)" stroke-width="1px" opacity="0.25"></line><line x1="249.33333333333331" y1="0" x2="249.33333333333331" y2="178" fill="rgb(0, 0, 0)" stroke="rgb(60, 60, 60)" stroke-width="1px" opacity="0.25"></line><line x1="272" y1="0" x2="272" y2="178" fill="rgb(0, 0, 0)" stroke="rgb(60, 60, 60)" stroke-width="1px" opacity="0.25"></line></g><g><line x1="0" y1="178" x2="272" y2="178" fill="rgb(0, 0, 0)" stroke="rgb(60, 60, 60)" stroke-width="1px" opacity="0.25"></line><line x1="0" y1="164.30769230769232" x2="272" y2="164.30769230769232" fill="rgb(0, 0, 0)" stroke="rgb(60, 60, 60)" stroke-width="1px" opacity="0.25"></line><line x1="0" y1="150.6153846153846" x2="272" y2="150.6153846153846" fill="rgb(0, 0, 0)" stroke="rgb(60, 60, 60)" stroke-width="1px" opacity="0.25"></line><line x1="0" y1="136.9230769230769" x2="272" y2="136.9230769230769" fill="rgb(0, 0, 0)" stroke="rgb(60, 60, 60)" stroke-width="1px" opacity="0.25"></line><line x1="0" y1="123.23076923076923" x2="272" y2="123.23076923076923" fill="rgb(0, 0, 0)" stroke="rgb(60, 60, 60)" stroke-width="1px" opacity="0.25"></line><line x1="0" y1="109.53846153846155" x2="272" y2="109.53846153846155" fill="rgb(0, 0, 0)" stroke="rgb(60, 60, 60)" stroke-width="1px" opacity="0.25"></line><line x1="0" y1="95.84615384615385" x2="272" y2="95.84615384615385" fill="rgb(0, 0, 0)" stroke="rgb(60, 60, 60)" stroke-width="1px" opacity="0.25"></line><line x1="0" y1="82.15384615384616" x2="272" y2="82.15384615384616" fill="rgb(0, 0, 0)" stroke="rgb(60, 60, 60)" stroke-width="1px" opacity="0.25"></line><line x1="0" y1="68.46153846153848" x2="272" y2="68.46153846153848" fill="rgb(0, 0, 0)" stroke="rgb(60, 60, 60)" stroke-width="1px" opacity="0.25"></line><line x1="0" y1="54.769230769230774" x2="272" y2="54.769230769230774" fill="rgb(0, 0, 0)" stroke="rgb(60, 60, 60)" stroke-width="1px" opacity="0.25"></line><line x1="0" y1="41.076923076923094" x2="272" y2="41.076923076923094" fill="rgb(0, 0, 0)" stroke="rgb(60, 60, 60)" stroke-width="1px" opacity="0.25"></line><line x1="0" y1="27.384615384615387" x2="272" y2="27.384615384615387" fill="rgb(0, 0, 0)" stroke="rgb(60, 60, 60)" stroke-width="1px" opacity="0.25"></line><line x1="0" y1="13.69230769230768" x2="272" y2="13.69230769230768" fill="rgb(0, 0, 0)" stroke="rgb(60, 60, 60)" stroke-width="1px" opacity="0.25"></line><line x1="0" y1="0" x2="272" y2="0" fill="rgb(0, 0, 0)" stroke="rgb(60, 60, 60)" stroke-width="1px" opacity="0.25"></line></g></g></g><g><g><line x1="0" y1="164.30769230769232" x2="272" y2="164.30769230769232" fill="rgb(0, 0, 0)" stroke="rgb(153, 153, 153)" stroke-width="1.5px"></line></g></g><g><g><line x1="22.666666666666664" y1="0" x2="22.666666666666664" y2="178" fill="rgb(0, 0, 0)" stroke="rgb(153, 153, 153)" stroke-width="1.5px"></line></g></g><g><g><g><g><g><path stroke="rgb(204, 51, 17)" stroke-width="2px" d="M22.666666666666664,161.26745963497802L24.93333333333333,160.9155807471476L27.200000000000003,158.71095227831432L29.46666666666667,155.82368772007246L31.733333333333334,156.28010869982037L34,149.91587256140107L36.266666666666666,149.53647375602992L38.53333333333333,148.51407447765638L40.8,144.11256935145815L43.06666666666666,139.7103055681116L45.33333333333333,136.65660274444804L47.599999999999994,132.99433857416054L49.86666666666666,129.53569873478054L52.13333333333334,131.6329208942432L54.400000000000006,128.6535046327853L56.66666666666667,124.53029180960988L58.93333333333334,112.87540358708313L61.2,103.96931742822841L63.46666666666667,96.80289366495407L65.73333333333333,85.60376672715657L68,74.00836239050615L70.26666666666668,66.16397313011126L72.53333333333333,66.17678445907192L74.80000000000001,64.14953187038728L77.06666666666666,57.473365600672L79.33333333333334,51.9444039373479L81.6,46.10927129550828L83.86666666666667,43.508104627878225L86.13333333333333,41.397908392972624L88.4,39.018390554245286L90.66666666666666,37.107847435083784L92.93333333333334,35.16790852221689L95.19999999999999,33.29320470979516L97.46666666666667,32.528705002072286L99.73333333333332,31.304316575553287L102,36.25649577250812L104.26666666666668,33.51847251716143L106.53333333333333,32.48370444849695L108.80000000000001,31.601608482093127L111.06666666666666,30.99848831408724L113.33333333333334,31.3437494708389L115.6,34.17586820240214L117.86666666666667,32.2764030065463L120.13333333333333,31.406965773515452L122.4,31.094293494181187L124.66666666666666,30.697700066222296L126.93333333333334,31.56954361465378L129.2,32.61061498711635L131.46666666666667,33.418118808588304L133.73333333333332,31.9956076117993L136,33.14640302862361L138.26666666666665,34.045870339081375L140.53333333333336,32.84518345950329L142.8,32.41753500510029L145.06666666666666,32.45370960580115L147.33333333333331,31.259319358838297L149.60000000000002,30.362523954604228L151.86666666666667,30.799125375171144L154.13333333333333,30.626894597074397L156.39999999999998,30.29835456014561L158.66666666666669,30.902051695590558L160.93333333333334,30.649917090364113L163.2,31.919213119725185L165.46666666666664,30.82602231440805L167.73333333333335,30.147586041960466L170,29.724312768787286L172.26666666666665,31.085499623341377L174.53333333333336,30.190673274535385L176.8,29.901497560079264L179.06666666666666,30.490079990045814L181.33333333333331,29.54065782121586L183.60000000000002,28.88092389188955L185.86666666666667,28.507602059050583L188.13333333333333,28.28360895934722L190.39999999999998,28.104172785511054L192.66666666666669,28.06407318448086L194.93333333333334,28.04001342386269L197.2,27.958015464220324L199.46666666666664,27.976378791706423L201.73333333333335,27.9648749989407L204,27.957972723281273L206.26666666666665,27.953831357885633L208.53333333333336,27.951346538648238L210.8,27.97237743636316L213.06666666666666,27.984995974992074L215.33333333333331,28.01508562292622L217.60000000000002,28.033139411686733L219.86666666666667,28.0664934742004L222.13333333333333,28.08650591170857L224.39999999999998,28.075991584956142L226.66666666666669,28.047164464147897L228.93333333333334,28.007346402405602L231.2,28.07353619338849L233.46666666666664,28.045691229207307L235.73333333333335,28.03529126575077L238,28.029051287676907L240.26666666666665,27.996478496522997L242.53333333333336,27.999456611087993L244.8,28.001243479826996L247.06666666666666,27.957275287056262" style="fill: none;" fill="none"></path></g><g><path stroke="rgb(0, 119, 187)" stroke-width="2px" d="M22.666666666666664,161.75003595822133L24.93333333333333,161.4450743829545L27.200000000000003,159.92505398749415L29.46666666666667,158.4117217567176L31.733333333333334,155.07466249130255L34,151.64593090433587L36.266666666666666,148.60177741264775L38.53333333333333,146.4042880581959L40.8,144.49433602018647L43.06666666666666,142.70154140762378L45.33333333333333,140.7933157580162L47.599999999999994,138.765092246839L49.86666666666666,136.6221550610513L52.13333333333334,133.20674271774527L54.400000000000006,128.16260778689798L56.66666666666667,121.26736113827778L58.93333333333334,114.39532085921766L61.2,106.58451140039939L63.46666666666667,98.87205582020498L65.73333333333333,92.04318115780399L68,85.76257888732067L70.26666666666668,79.51597199842989L72.53333333333333,73.5814350493727L74.80000000000001,69.78588706383539L77.06666666666666,64.83187086079965L79.33333333333334,60.51683102072539L81.6,56.69563462932693L83.86666666666667,54.085492127615325L86.13333333333333,50.4132229440125L88.4,48.24096320338097L90.66666666666666,46.30275363222589L92.93333333333334,43.97413357782392L95.19999999999999,42.5212007273266L97.46666666666667,41.489653548696026L99.73333333333332,39.987073915321446L102,39.35469401801015L104.26666666666668,38.61279879258373L106.53333333333333,37.8566690147282L108.80000000000001,37.48663744745298L111.06666666666666,36.90000644129927L113.33333333333334,36.53086635873211L115.6,36.271847082101175L117.86666666666667,35.99311574359314L120.13333333333333,35.357238300275014L122.4,34.83844611544012L124.66666666666666,34.3244910237477L126.93333333333334,33.85847523744707L129.2,33.7869091208907L131.46666666666667,33.899467405401936L133.73333333333332,33.50909088470999L136,33.09148491870238L138.26666666666665,32.667191149114956L140.53333333333336,33.01744849026963L142.8,32.87049265138444L145.06666666666666,32.577494590382116L147.33333333333331,32.547540580112354L149.60000000000002,32.42018455420188L151.86666666666667,32.0241959223404L154.13333333333333,32.206982271856106L156.39999999999998,32.071075499095315L158.66666666666669,32.04529563374203L160.93333333333334,32.00516441291546L163.2,31.97143255230904L165.46666666666664,31.619823779162346L167.73333333333335,31.70055143243789L170,31.60206591289196L172.26666666666665,31.32849691538277L174.53333333333336,31.785273313965916L176.8,31.36657296354059L179.06666666666666,31.23331874496583L181.33333333333331,30.714754449646733L183.60000000000002,30.02399036862181L185.86666666666667,29.56985518038752L188.13333333333333,29.283431385620872L190.39999999999998,29.13195085665984L192.66666666666669,29.12578285741725L194.93333333333334,28.789638380409656L197.2,28.859270863469646L199.46666666666664,28.782010340945988L201.73333333333335,28.714209523354214L204,28.71642456995548L206.26666666666665,28.78424168050853L208.53333333333336,28.713403550233892L210.8,28.7856478662126L213.06666666666666,28.750708468239253L215.33333333333331,28.700791974124996L217.60000000000002,28.609714304958374L219.86666666666667,28.585094579467835L222.13333333333333,28.547800954916198L224.39999999999998,28.608000321461418L226.66666666666669,28.607658734805625L228.93333333333334,28.553834361366768L231.2,28.50974183233521L233.46666666666664,28.472562430627192L235.73333333333335,28.549985281240566L238,28.498853276828214L240.26666666666665,28.536806933630913L242.53333333333336,28.67754511939296L244.8,28.63329815488069L247.06666666666666,28.69790462488075" style="fill: none;" fill="none"></path></g></g></g></g><g opacity="0.2"><g><g><g><path stroke="rgb(204, 51, 17)" stroke-width="2px" d="M22.666666666666664,161.26745963497802L24.93333333333333,160.70445341444932L27.200000000000003,156.59450894823442L29.46666666666667,152.42826459958002L31.733333333333334,156.87601193097922L34,141.11184285695737L36.266666666666666,148.9939273939683L38.53333333333333,147.02340651475467L40.8,137.62120423867154L43.06666666666666,133.17345690727234L45.33333333333333,132.1037453688108L47.599999999999994,127.52087219861838L49.86666666666666,124.35903203487396L52.13333333333334,134.77464545690097L54.400000000000006,124.18788243257083L56.66666666666667,118.34838058398321L58.93333333333334,95.39800321138823L61.2,90.61244944425731L63.46666666666667,86.05434975257288L65.73333333333333,68.80609996502216L68,56.61589180506195L70.26666666666668,54.39764736248898L72.53333333333333,66.19600119957559L74.80000000000001,61.10867700209985L77.06666666666666,47.45916364743161L79.33333333333334,43.650985020857604L81.6,37.356587263254L83.86666666666667,39.60635861983664L86.13333333333333,38.23261598440317L88.4,35.44911511127765L90.66666666666666,34.24203338989844L92.93333333333334,32.258000538899324L95.19999999999999,30.48114921496463L97.46666666666667,31.381955495247468L99.73333333333332,29.467733988395082L102,43.68476444024307L104.26666666666668,29.411437676503084L106.53333333333333,30.93155235510605L108.80000000000001,30.278464537400453L111.06666666666666,30.093808064093935L113.33333333333334,31.86164120527414L115.6,38.42404629633975L117.86666666666667,29.427205214133608L120.13333333333333,30.102809924345735L122.4,30.62528507526102L124.66666666666666,30.102809924345735L126.93333333333334,32.87730893721945L129.2,34.17222204575171L131.46666666666667,34.629374540769135L133.73333333333332,29.861840816644502L136,34.87259615384613L138.26666666666665,35.395071304761444L140.53333333333336,31.04415314014139L142.8,31.776062323496888L145.06666666666666,32.50797150685236L147.33333333333331,29.467733988395082L149.60000000000002,29.017330848253692L151.86666666666667,31.454027506021333L154.13333333333333,30.36854842992929L156.39999999999998,29.805544504752504L158.66666666666669,31.807597398757935L160.93333333333334,30.271715182524446L163.2,33.823157163766695L165.46666666666664,29.186236106432403L167.73333333333335,29.129931633289033L170,29.089402859027558L172.26666666666665,33.127279905172486L174.53333333333336,28.848433751326326L176.8,29.467733988395082L179.06666666666666,31.372953634995667L181.33333333333331,28.116524567970856L183.60000000000002,27.891322997900147L185.86666666666667,27.947619309792145L188.13333333333333,27.947619309792145L190.39999999999998,27.835018524756777L192.66666666666669,28.003923782935487L194.93333333333334,28.003923782935487L197.2,27.835018524756777L199.46666666666664,28.003923782935487L201.73333333333335,27.947619309792145L204,27.947619309792145L206.26666666666665,27.947619309792145L208.53333333333336,27.947619309792145L210.8,28.003923782935487L213.06666666666666,28.003923782935487L215.33333333333331,28.060220094827486L217.60000000000002,28.060220094827486L219.86666666666667,28.116524567970856L222.13333333333333,28.116524567970856L224.39999999999998,28.060220094827486L226.66666666666669,28.003923782935487L228.93333333333334,27.947619309792145L231.2,28.172820879862854L233.46666666666664,28.003923782935487L235.73333333333335,28.01969132056601L238,28.01969132056601L240.26666666666665,27.947619309792145L242.53333333333336,28.003923782935487L244.8,28.003923782935487L247.06666666666666,27.891322997900147" style="fill: none;" fill="none"></path></g><g><path stroke="rgb(0, 119, 187)" stroke-width="2px" d="M22.666666666666664,161.75003595822133L24.93333333333333,161.26209743779438L27.200000000000003,158.46583440785224L29.46666666666667,156.6320430533244L31.733333333333334,150.71779791437663L34,146.90276077618967L36.266666666666666,144.24858921307785L38.53333333333333,143.2003274835073L40.8,141.6775277532064L43.06666666666666,140.03945034742355L45.33333333333333,137.94828474980136L47.599999999999994,135.7337944828547L49.86666666666666,133.4147463440895L52.13333333333334,128.09031535111941L54.400000000000006,120.60233458188864L56.66666666666667,110.92935422750621L58.93333333333334,104.09016845776485L61.2,94.87028037584746L63.46666666666667,87.30454736489517L65.73333333333333,81.80049335039581L68,76.3420199247507L70.26666666666668,70.14626721235422L72.53333333333333,64.67974679286664L74.80000000000001,64.09261004741376L77.06666666666666,57.40088176727295L79.33333333333334,54.044289662287795L81.6,50.963849819623505L83.86666666666667,50.170282382231505L86.13333333333333,44.90482255128714L88.4,44.982574793008666L90.66666666666666,43.39543991822464L92.93333333333334,40.48120395953836L95.19999999999999,40.34180162503168L97.46666666666667,39.942332854637726L99.73333333333332,37.733204529835604L102,38.40612418834979L104.26666666666668,37.499955965922425L106.53333333333333,36.72247435496402L108.80000000000001,36.931590098601106L111.06666666666666,36.020059934029206L113.33333333333334,35.97715623562152L115.6,35.88331816746637L117.86666666666667,35.57501873603232L120.13333333333333,34.40342213557315L122.4,34.06025783832254L124.66666666666666,33.553558386289154L126.93333333333334,33.159451558039734L129.2,33.67955994606018L131.46666666666667,34.06830483216504L133.73333333333332,32.92352610367993L136,32.465075969696045L138.26666666666665,32.03075049473688L140.53333333333336,33.54283450200006L142.8,32.65005889305701L145.06666666666666,32.13799749887906L147.33333333333331,32.502609564707825L149.60000000000002,32.229150515336244L151.86666666666667,31.43021297454834L154.13333333333333,32.48116179612967L156.39999999999998,31.867215339954072L158.66666666666669,32.00662583571213L160.93333333333334,31.9449675816756L163.2,31.920834761399476L165.46666666666664,31.092410619442262L167.73333333333335,31.821642912351166L170,31.45433763357309L172.26666666666665,30.91814341911902L174.53333333333336,32.47043791184058L176.8,30.73852243790259L179.06666666666666,31.03343741710367L181.33333333333331,29.93690800666809L183.60000000000002,28.987844247084382L185.86666666666667,28.888652398036072L188.13333333333333,28.853795693470857L190.39999999999998,28.904730063218324L192.66666666666669,29.116530858553375L194.93333333333334,28.285421664898195L197.2,28.963719588059632L199.46666666666664,28.666119557160584L201.73333333333335,28.612508296966553L204,28.71974713985736L206.26666666666665,28.885967346338106L208.53333333333336,28.607146354821992L210.8,28.894014340180604L213.06666666666666,28.698299371279205L215.33333333333331,28.625917232953583L217.60000000000002,28.473097801208496L219.86666666666667,28.548164991232056L222.13333333333333,28.491860518088686L224.39999999999998,28.698299371279205L226.66666666666669,28.607146354821992L228.93333333333334,28.473097801208496L231.2,28.443603038787842L233.46666666666664,28.416793328065125L235.73333333333335,28.666119557160584L238,28.422155270209657L240.26666666666665,28.593737418834962L242.53333333333336,28.888652398036072L244.8,28.566927708112274L247.06666666666666,28.79481432988092" style="fill: none;" fill="none"></path></g></g></g></g></g></g><g transform="translate(58, 178)" clip-path="url(#clip_1)"><clipPath id="clip_1"><rect width="272" height="22"></rect></clipPath><g><g><line x1="0" y1="0" x2="0" y2="5" style="visibility: inherit;" fill="rgb(0, 0, 0)" stroke="rgb(204, 204, 204)" stroke-width="1px"></line><line x1="22.666666666666664" y1="0" x2="22.666666666666664" y2="5" style="visibility: inherit;" fill="rgb(0, 0, 0)" stroke="rgb(204, 204, 204)" stroke-width="1px"></line><line x1="45.33333333333333" y1="0" x2="45.33333333333333" y2="5" style="visibility: inherit;" fill="rgb(0, 0, 0)" stroke="rgb(204, 204, 204)" stroke-width="1px"></line><line x1="68" y1="0" x2="68" y2="5" style="visibility: inherit;" fill="rgb(0, 0, 0)" stroke="rgb(204, 204, 204)" stroke-width="1px"></line><line x1="90.66666666666666" y1="0" x2="90.66666666666666" y2="5" style="visibility: inherit;" fill="rgb(0, 0, 0)" stroke="rgb(204, 204, 204)" stroke-width="1px"></line><line x1="113.33333333333334" y1="0" x2="113.33333333333334" y2="5" style="visibility: inherit;" fill="rgb(0, 0, 0)" stroke="rgb(204, 204, 204)" stroke-width="1px"></line><line x1="136" y1="0" x2="136" y2="5" style="visibility: inherit;" fill="rgb(0, 0, 0)" stroke="rgb(204, 204, 204)" stroke-width="1px"></line><line x1="158.66666666666669" y1="0" x2="158.66666666666669" y2="5" style="visibility: inherit;" fill="rgb(0, 0, 0)" stroke="rgb(204, 204, 204)" stroke-width="1px"></line><line x1="181.33333333333331" y1="0" x2="181.33333333333331" y2="5" style="visibility: inherit;" fill="rgb(0, 0, 0)" stroke="rgb(204, 204, 204)" stroke-width="1px"></line><line x1="204" y1="0" x2="204" y2="5" style="visibility: inherit;" fill="rgb(0, 0, 0)" stroke="rgb(204, 204, 204)" stroke-width="1px"></line><line x1="226.66666666666669" y1="0" x2="226.66666666666669" y2="5" style="visibility: inherit;" fill="rgb(0, 0, 0)" stroke="rgb(204, 204, 204)" stroke-width="1px"></line><line x1="249.33333333333331" y1="0" x2="249.33333333333331" y2="5" style="visibility: inherit;" fill="rgb(0, 0, 0)" stroke="rgb(204, 204, 204)" stroke-width="1px"></line><line x1="272" y1="0" x2="272" y2="5" style="visibility: inherit;" fill="rgb(0, 0, 0)" stroke="rgb(204, 204, 204)" stroke-width="1px"></line></g><g transform="translate(0, 8)"><text x="0" y="0" dx="0em" dy="0.95em" style="text-anchor: middle; visibility: hidden; font-family: &quot;Helvetica Neue&quot;, sans-serif; font-size: 12px; font-weight: 200;" fill="rgb(50, 49, 63)" stroke="none" stroke-width="1px">-10</text><text x="22.666666666666664" y="0" dx="0em" dy="0.95em" style="text-anchor: middle; visibility: inherit; font-family: &quot;Helvetica Neue&quot;, sans-serif; font-size: 12px; font-weight: 200;" fill="rgb(50, 49, 63)" stroke="none" stroke-width="1px">0</text><text x="45.33333333333333" y="0" dx="0em" dy="0.95em" style="text-anchor: middle; visibility: inherit; font-family: &quot;Helvetica Neue&quot;, sans-serif; font-size: 12px; font-weight: 200;" fill="rgb(50, 49, 63)" stroke="none" stroke-width="1px">10</text><text x="68" y="0" dx="0em" dy="0.95em" style="text-anchor: middle; visibility: inherit; font-family: &quot;Helvetica Neue&quot;, sans-serif; font-size: 12px; font-weight: 200;" fill="rgb(50, 49, 63)" stroke="none" stroke-width="1px">20</text><text x="90.66666666666666" y="0" dx="0em" dy="0.95em" style="text-anchor: middle; visibility: inherit; font-family: &quot;Helvetica Neue&quot;, sans-serif; font-size: 12px; font-weight: 200;" fill="rgb(50, 49, 63)" stroke="none" stroke-width="1px">30</text><text x="113.33333333333334" y="0" dx="0em" dy="0.95em" style="text-anchor: middle; visibility: inherit; font-family: &quot;Helvetica Neue&quot;, sans-serif; font-size: 12px; font-weight: 200;" fill="rgb(50, 49, 63)" stroke="none" stroke-width="1px">40</text><text x="136" y="0" dx="0em" dy="0.95em" style="text-anchor: middle; visibility: inherit; font-family: &quot;Helvetica Neue&quot;, sans-serif; font-size: 12px; font-weight: 200;" fill="rgb(50, 49, 63)" stroke="none" stroke-width="1px">50</text><text x="158.66666666666669" y="0" dx="0em" dy="0.95em" style="text-anchor: middle; visibility: inherit; font-family: &quot;Helvetica Neue&quot;, sans-serif; font-size: 12px; font-weight: 200;" fill="rgb(50, 49, 63)" stroke="none" stroke-width="1px">60</text><text x="181.33333333333331" y="0" dx="0em" dy="0.95em" style="text-anchor: middle; visibility: inherit; font-family: &quot;Helvetica Neue&quot;, sans-serif; font-size: 12px; font-weight: 200;" fill="rgb(50, 49, 63)" stroke="none" stroke-width="1px">70</text><text x="204" y="0" dx="0em" dy="0.95em" style="text-anchor: middle; visibility: inherit; font-family: &quot;Helvetica Neue&quot;, sans-serif; font-size: 12px; font-weight: 200;" fill="rgb(50, 49, 63)" stroke="none" stroke-width="1px">80</text><text x="226.66666666666669" y="0" dx="0em" dy="0.95em" style="text-anchor: middle; visibility: inherit; font-family: &quot;Helvetica Neue&quot;, sans-serif; font-size: 12px; font-weight: 200;" fill="rgb(50, 49, 63)" stroke="none" stroke-width="1px">90</text><text x="249.33333333333331" y="0" dx="0em" dy="0.95em" style="text-anchor: middle; visibility: inherit; font-family: &quot;Helvetica Neue&quot;, sans-serif; font-size: 12px; font-weight: 200;" fill="rgb(50, 49, 63)" stroke="none" stroke-width="1px">100</text><text x="272" y="0" dx="0em" dy="0.95em" style="text-anchor: middle; visibility: hidden; font-family: &quot;Helvetica Neue&quot;, sans-serif; font-size: 12px; font-weight: 200;" fill="rgb(50, 49, 63)" stroke="none" stroke-width="1px">110</text></g><line x1="0" y1="0" x2="272" y2="0" fill="rgb(0, 0, 0)" stroke="rgb(204, 204, 204)" stroke-width="1px"></line></g></g></g></g></svg>