<svg viewBox="0 0 330 200" xmlns="http://www.w3.org/2000/svg"><g><g><g><g><g><line x1="58" y1="178" x2="53" y2="178" style="visibility: inherit;" fill="rgb(0, 0, 0)" stroke="rgb(204, 204, 204)" stroke-width="1px"></line><line x1="58" y1="164.30769230769232" x2="53" y2="164.30769230769232" style="visibility: inherit;" fill="rgb(0, 0, 0)" stroke="rgb(204, 204, 204)" stroke-width="1px"></line><line x1="58" y1="150.6153846153846" x2="53" y2="150.6153846153846" style="visibility: inherit;" fill="rgb(0, 0, 0)" stroke="rgb(204, 204, 204)" stroke-width="1px"></line><line x1="58" y1="136.9230769230769" x2="53" y2="136.9230769230769" style="visibility: inherit;" fill="rgb(0, 0, 0)" stroke="rgb(204, 204, 204)" stroke-width="1px"></line><line x1="58" y1="123.23076923076923" x2="53" y2="123.23076923076923" style="visibility: inherit;" fill="rgb(0, 0, 0)" stroke="rgb(204, 204, 204)" stroke-width="1px"></line><line x1="58" y1="109.53846153846155" x2="53" y2="109.53846153846155" style="visibility: inherit;" fill="rgb(0, 0, 0)" stroke="rgb(204, 204, 204)" stroke-width="1px"></line><line x1="58" y1="95.84615384615385" x2="53" y2="95.84615384615385" style="visibility: inherit;" fill="rgb(0, 0, 0)" stroke="rgb(204, 204, 204)" stroke-width="1px"></line><line x1="58" y1="82.15384615384616" x2="53" y2="82.15384615384616" style="visibility: inherit;" fill="rgb(0, 0, 0)" stroke="rgb(204, 204, 204)" stroke-width="1px"></line><line x1="58" y1="68.46153846153848" x2="53" y2="68.46153846153848" style="visibility: inherit;" fill="rgb(0, 0, 0)" stroke="rgb(204, 204, 204)" stroke-width="1px"></line><line x1="58" y1="54.769230769230774" x2="53" y2="54.769230769230774" style="visibility: inherit;" fill="rgb(0, 0, 0)" stroke="rgb(204, 204, 204)" stroke-width="1px"></line><line x1="58" y1="41.076923076923094" x2="53" y2="41.076923076923094" style="visibility: inherit;" fill="rgb(0, 0, 0)" stroke="rgb(204, 204, 204)" stroke-width="1px"></line><line x1="58" y1="27.384615384615387" x2="53" y2="27.384615384615387" style="visibility: inherit;" fill="rgb(0, 0, 0)" stroke="rgb(204, 204, 204)" stroke-width="1px"></line><line x1="58" y1="13.69230769230768" x2="53" y2="13.69230769230768" style="visibility: inherit;" fill="rgb(0, 0, 0)" stroke="rgb(204, 204, 204)" stroke-width="1px"></line><line x1="58" y1="0" x2="53" y2="0" style="visibility: inherit;" fill="rgb(0, 0, 0)" stroke="rgb(204, 204, 204)" stroke-width="1px"></line></g><g transform="translate(48, 0)"><text x="0" y="178" dx="0em" dy="0.3em" style="text-anchor: end; visibility: hidden; font-family: &quot;Helvetica Neue&quot;, sans-serif; font-size: 12px; font-weight: 200;" fill="rgb(50, 49, 63)" stroke="none" stroke-width="1px">-0.1</text><text x="0" y="164.30769230769232" dx="0em" dy="0.3em" style="text-anchor: end; visibility: inherit; font-family: &quot;Helvetica Neue&quot;, sans-serif; font-size: 12px; font-weight: 200;" fill="rgb(50, 49, 63)" stroke="none" stroke-width="1px">0</text><text x="0" y="150.6153846153846" dx="0em" dy="0.3em" style="text-anchor: end; visibility: hidden; font-family: &quot;Helvetica Neue&quot;, sans-serif; font-size: 12px; font-weight: 200;" fill="rgb(50, 49, 63)" stroke="none" stroke-width="1px">0.1</text><text x="0" y="136.9230769230769" dx="0em" dy="0.3em" style="text-anchor: end; visibility: inherit; font-family: &quot;Helvetica Neue&quot;, sans-serif; font-size: 12px; font-weight: 200;" fill="rgb(50, 49, 63)" stroke="none" stroke-width="1px">0.2</text><text x="0" y="123.23076923076923" dx="0em" dy="0.3em" style="text-anchor: end; visibility: hidden; font-family: &quot;Helvetica Neue&quot;, sans-serif; font-size: 12px; font-weight: 200;" fill="rgb(50, 49, 63)" stroke="none" stroke-width="1px">0.3</text><text x="0" y="109.53846153846155" dx="0em" dy="0.3em" style="text-anchor: end; visibility: inherit; font-family: &quot;Helvetica Neue&quot;, sans-serif; font-size: 12px; font-weight: 200;" fill="rgb(50, 49, 63)" stroke="none" stroke-width="1px">0.4</text><text x="0" y="95.84615384615385" dx="0em" dy="0.3em" style="text-anchor: end; visibility: hidden; font-family: &quot;Helvetica Neue&quot;, sans-serif; font-size: 12px; font-weight: 200;" fill="rgb(50, 49, 63)" stroke="none" stroke-width="1px">0.5</text><text x="0" y="82.15384615384616" dx="0em" dy="0.3em" style="text-anchor: end; visibility: inherit; font-family: &quot;Helvetica Neue&quot;, sans-serif; font-size: 12px; font-weight: 200;" fill="rgb(50, 49, 63)" stroke="none" stroke-width="1px">0.6</text><text x="0" y="68.46153846153848" dx="0em" dy="0.3em" style="text-anchor: end; visibility: hidden; font-family: &quot;Helvetica Neue&quot;, sans-serif; font-size: 12px; font-weight: 200;" fill="rgb(50, 49, 63)" stroke="none" stroke-width="1px">0.7</text><text x="0" y="54.769230769230774" dx="0em" dy="0.3em" style="text-anchor: end; visibility: inherit; font-family: &quot;Helvetica Neue&quot;, sans-serif; font-size: 12px; font-weight: 200;" fill="rgb(50, 49, 63)" stroke="none" stroke-width="1px">0.8</text><text x="0" y="41.076923076923094" dx="0em" dy="0.3em" style="text-anchor: end; visibility: hidden; font-family: &quot;Helvetica Neue&quot;, sans-serif; font-size: 12px; font-weight: 200;" fill="rgb(50, 49, 63)" stroke="none" stroke-width="1px">0.9</text><text x="0" y="27.384615384615387" dx="0em" dy="0.3em" style="text-anchor: end; visibility: inherit; font-family: &quot;Helvetica Neue&quot;, sans-serif; font-size: 12px; font-weight: 200;" fill="rgb(50, 49, 63)" stroke="none" stroke-width="1px">1</text><text x="0" y="13.69230769230768" dx="0em" dy="0.3em" style="text-anchor: end; visibility: hidden; font-family: &quot;Helvetica Neue&quot;, sans-serif; font-size: 12px; font-weight: 200;" fill="rgb(50, 49, 63)" stroke="none" stroke-width="1px">1.1</text><text x="0" y="0" dx="0em" dy="0.3em" style="text-anchor: end; visibility: hidden; font-family: &quot;Helvetica Neue&quot;, sans-serif; font-size: 12px; font-weight: 200;" fill="rgb(50, 49, 63)" stroke="none" stroke-width="1px">1.2</text></g><line x1="58" y1="0" x2="58" y2="178" fill="rgb(0, 0, 0)" stroke="rgb(204, 204, 204)" stroke-width="1px"></line></g></g><g transform="translate(58, 0)" clip-path="url(#clip_0)"><clipPath id="clip_0"><rect width="272" height="178"></rect></clipPath><g><g><g><line x1="0" y1="0" x2="0" y2="178" fill="rgb(0, 0, 0)" stroke="rgb(60, 60, 60)" stroke-width="1px" opacity="0.25"></line><line x1="30.22222222222222" y1="0" x2="30.22222222222222" y2="178" fill="rgb(0, 0, 0)" stroke="rgb(60, 60, 60)" stroke-width="1px" opacity="0.25"></line><line x1="60.44444444444444" y1="0" x2="60.44444444444444" y2="178" fill="rgb(0, 0, 0)" stroke="rgb(60, 60, 60)" stroke-width="1px" opacity="0.25"></line><line x1="90.66666666666666" y1="0" x2="90.66666666666666" y2="178" fill="rgb(0, 0, 0)" stroke="rgb(60, 60, 60)" stroke-width="1px" opacity="0.25"></line><line x1="120.88888888888889" y1="0" x2="120.88888888888889" y2="178" fill="rgb(0, 0, 0)" stroke="rgb(60, 60, 60)" stroke-width="1px" opacity="0.25"></line><line x1="151.11111111111111" y1="0" x2="151.11111111111111" y2="178" fill="rgb(0, 0, 0)" stroke="rgb(60, 60, 60)" stroke-width="1px" opacity="0.25"></line><line x1="181.33333333333331" y1="0" x2="181.33333333333331" y2="178" fill="rgb(0, 0, 0)" stroke="rgb(60, 60, 60)" stroke-width="1px" opacity="0.25"></line><line x1="211.55555555555557" y1="0" x2="211.55555555555557" y2="178" fill="rgb(0, 0, 0)" stroke="rgb(60, 60, 60)" stroke-width="1px" opacity="0.25"></line><line x1="241.77777777777777" y1="0" x2="241.77777777777777" y2="178" fill="rgb(0, 0, 0)" stroke="rgb(60, 60, 60)" stroke-width="1px" opacity="0.25"></line><line x1="272" y1="0" x2="272" y2="178" fill="rgb(0, 0, 0)" stroke="rgb(60, 60, 60)" stroke-width="1px" opacity="0.25"></line></g><g><line x1="0" y1="178" x2="272" y2="178" fill="rgb(0, 0, 0)" stroke="rgb(60, 60, 60)" stroke-width="1px" opacity="0.25"></line><line x1="0" y1="164.30769230769232" x2="272" y2="164.30769230769232" fill="rgb(0, 0, 0)" stroke="rgb(60, 60, 60)" stroke-width="1px" opacity="0.25"></line><line x1="0" y1="150.6153846153846" x2="272" y2="150.6153846153846" fill="rgb(0, 0, 0)" stroke="rgb(60, 60, 60)" stroke-width="1px" opacity="0.25"></line><line x1="0" y1="136.9230769230769" x2="272" y2="136.9230769230769" fill="rgb(0, 0, 0)" stroke="rgb(60, 60, 60)" stroke-width="1px" opacity="0.25"></line><line x1="0" y1="123.23076923076923" x2="272" y2="123.23076923076923" fill="rgb(0, 0, 0)" stroke="rgb(60, 60, 60)" stroke-width="1px" opacity="0.25"></line><line x1="0" y1="109.53846153846155" x2="272" y2="109.53846153846155" fill="rgb(0, 0, 0)" stroke="rgb(60, 60, 60)" stroke-width="1px" opacity="0.25"></line><line x1="0" y1="95.84615384615385" x2="272" y2="95.84615384615385" fill="rgb(0, 0, 0)" stroke="rgb(60, 60, 60)" stroke-width="1px" opacity="0.25"></line><line x1="0" y1="82.15384615384616" x2="272" y2="82.15384615384616" fill="rgb(0, 0, 0)" stroke="rgb(60, 60, 60)" stroke-width="1px" opacity="0.25"></line><line x1="0" y1="68.46153846153848" x2="272" y2="68.46153846153848" fill="rgb(0, 0, 0)" stroke="rgb(60, 60, 60)" stroke-width="1px" opacity="0.25"></line><line x1="0" y1="54.769230769230774" x2="272" y2="54.769230769230774" fill="rgb(0, 0, 0)" stroke="rgb(60, 60, 60)" stroke-width="1px" opacity="0.25"></line><line x1="0" y1="41.076923076923094" x2="272" y2="41.076923076923094" fill="rgb(0, 0, 0)" stroke="rgb(60, 60, 60)" stroke-width="1px" opacity="0.25"></line><line x1="0" y1="27.384615384615387" x2="272" y2="27.384615384615387" fill="rgb(0, 0, 0)" stroke="rgb(60, 60, 60)" stroke-width="1px" opacity="0.25"></line><line x1="0" y1="13.69230769230768" x2="272" y2="13.69230769230768" fill="rgb(0, 0, 0)" stroke="rgb(60, 60, 60)" stroke-width="1px" opacity="0.25"></line><line x1="0" y1="0" x2="272" y2="0" fill="rgb(0, 0, 0)" stroke="rgb(60, 60, 60)" stroke-width="1px" opacity="0.25"></line></g></g></g><g><g><line x1="0" y1="164.30769230769232" x2="272" y2="164.30769230769232" fill="rgb(0, 0, 0)" stroke="rgb(153, 153, 153)" stroke-width="1.5px"></line></g></g><g><g><line x1="30.22222222222222" y1="0" x2="30.22222222222222" y2="178" fill="rgb(0, 0, 0)" stroke="rgb(153, 153, 153)" stroke-width="1.5px"></line></g></g><g><g><g><g><g><path stroke="rgb(204, 51, 17)" stroke-width="2px" d="M30.22222222222222,161.5780834928155L33.24444444444444,161.16310920559155L36.266666666666666,160.90433841325003L39.288888888888884,160.6545623552973L42.31111111111111,160.62315316710345L45.33333333333333,151.7068310226158L48.355555555555554,145.97822334195587L51.37777777777778,147.94280960707005L54.400000000000006,136.505630697245L57.422222222222224,123.1519015141148L60.44444444444444,112.79897664931677L63.46666666666667,105.32525596454887L66.48888888888888,105.64219897087546L69.5111111111111,96.7149631357865L72.53333333333333,82.12793626097441L75.55555555555556,75.17510015698771L78.57777777777777,75.53310000685227L81.6,69.1000197605481L84.62222222222222,72.086762533284L87.64444444444445,87.47818414034596L90.66666666666666,80.48221333536422L93.68888888888888,77.52852341767274L96.71111111111111,68.58671960629279L99.73333333333332,60.98016135486384L102.75555555555556,69.83623150771149L105.77777777777779,59.288591839357935L108.80000000000001,61.84551271955401L111.82222222222222,53.12198936532077L114.84444444444445,52.196237607516366L117.86666666666667,48.53991863079398L120.88888888888889,46.14195607743886L123.91111111111111,40.85221690404802L126.93333333333334,45.10554041269552L129.95555555555555,40.08281888667176L132.97777777777776,41.03021030557417L136,40.91315225706012L139.0222222222222,37.508367210780136L142.04444444444445,43.12315593897054L145.06666666666666,45.424113097000344L148.08888888888887,40.36249262466501L151.11111111111111,38.69770091861756L154.13333333333333,41.37273072003458L157.15555555555554,41.27737799439461L160.17777777777778,55.60952979711965L163.2,47.43279414965275L166.22222222222223,41.287362278369955L169.24444444444444,36.89187955616504L172.26666666666665,37.898986925029305L175.2888888888889,37.01303296369801L178.3111111111111,36.83876343601909L181.33333333333331,33.60302664151894L184.35555555555555,31.617321201944264L187.37777777777777,30.4406502161643L190.39999999999998,29.66087644139023L193.42222222222222,29.22251999694916L196.44444444444443,28.959506130284694L199.46666666666664,28.77218998986325L202.48888888888888,28.70406366849491L205.51111111111112,28.60416897032772L208.53333333333336,28.529476608965695L211.55555555555557,28.5584356399564L214.57777777777778,28.53154769566629L217.60000000000002,28.53016720705338L220.62222222222223,28.485075551001103L223.64444444444445,28.531795005177656L226.66666666666669,28.500807772337367L229.6888888888889,28.526478795517733L232.7111111111111,28.541881409425912L235.73333333333335,28.61014188311708L238.75555555555556,28.592079261985504" style="fill: none;" fill="none"></path></g><g><path stroke="rgb(0, 119, 187)" stroke-width="2px" d="M30.22222222222222,162.41341141582683L33.24444444444444,161.3789856374049L36.266666666666666,160.698477179391L39.288888888888884,159.05979333731673L42.31111111111111,156.64842342594255L45.33333333333333,152.85540962661534L48.355555555555554,147.74347077195037L51.37777777777778,141.9225618596374L54.400000000000006,135.1759771735878L57.422222222222224,127.11984072562042L60.44444444444444,119.87499339043053L63.46666666666667,113.74271809660786L66.48888888888888,107.49787031963473L69.5111111111111,101.95686834572308L72.53333333333333,96.57250640718553L75.55555555555556,91.30572677340706L78.57777777777777,86.87066319812091L81.6,83.3158157997285L84.62222222222222,78.773760833862L87.64444444444445,75.03006523550786L90.66666666666666,71.800969536939L93.68888888888888,69.06641468964703L96.71111111111111,66.69710824426777L99.73333333333332,63.639063855475015L102.75555555555556,61.58040232170161L105.77777777777779,59.56075159274455L108.80000000000001,58.01675765134017L111.82222222222222,56.71556802468001L114.84444444444445,55.2324123320691L117.86666666666667,53.38869402175487L120.88888888888889,52.3626916724556L123.91111111111111,51.71281635603009L126.93333333333334,50.19692246916223L129.95555555555555,48.963103747977556L132.97777777777776,47.68003055200708L136,47.4117641043936L139.0222222222222,46.20348063738834L142.04444444444445,45.2336632267135L145.06666666666666,44.326106207556336L148.08888888888887,43.48878547211868L151.11111111111111,42.64348989409041L154.13333333333333,42.50140449529184L157.15555555555554,41.7963127439686L160.17777777777778,41.439027585788835L163.2,41.4239379266877L166.22222222222223,40.747303563312954L169.24444444444444,40.13669425766892L172.26666666666665,39.460707120135595L175.2888888888889,39.45625666455379L178.3111111111111,38.633472035377224L181.33333333333331,36.797908721999164L184.35555555555555,35.156563582886264L187.37777777777777,33.93245881599876L190.39999999999998,33.26416085290609L193.42222222222222,32.981445136280996L196.44444444444443,33.0247656058329L199.46666666666664,32.38595214515334L202.48888888888888,32.163120799514985L205.51111111111112,31.787349483246658L208.53333333333336,31.638354354242892L211.55555555555557,31.784487726634552L214.57777777777778,32.03262448083876L217.60000000000002,32.08860211236191L220.62222222222223,31.942517110300912L223.64444444444445,31.774637743679705L226.66666666666669,31.896764517886083L229.6888888888889,31.819886615359508L232.7111111111111,31.931441779149907L235.73333333333335,31.694299709694803L238.75555555555556,31.843413580136286" style="fill: none;" fill="none"></path></g></g></g></g><g opacity="0.2"><g><g><g><path stroke="rgb(204, 51, 17)" stroke-width="2px" d="M30.22222222222222,161.5780834928155L33.24444444444444,160.91412463325722L36.266666666666666,160.65591845260218L39.288888888888884,160.36082571114486L42.31111111111111,160.5821453309976L45.33333333333333,139.37234762081732L48.355555555555554,137.7862227008893L51.37777777777778,150.80719524163464L54.400000000000006,119.63801336288452L57.422222222222224,103.32316997418037L60.44444444444444,97.3634896186682L63.46666666666667,94.155346595324L66.48888888888888,106.11657860645882L69.5111111111111,83.34159876750067L72.53333333333333,60.264542451271666L75.55555555555556,64.75074967971216L78.57777777777777,76.0699482881106L81.6,59.45203274946948L84.62222222222222,76.56642169218799L87.64444444444445,110.56390971403856L90.66666666666666,69.98864080355719L93.68888888888888,73.09808573356042L96.71111111111111,55.1741904295408L99.73333333333332,49.5704140846546L102.75555555555556,83.12027379182669L105.77777777777779,43.46717731769269L108.80000000000001,65.6808874973884L111.82222222222222,40.036717726634095L114.84444444444445,50.80761082355794L117.86666666666667,43.05544218650232L120.88888888888889,42.54501304259668L123.91111111111111,32.91760919644281L126.93333333333334,51.485525167905365L129.95555555555555,32.54873695740332L132.97777777777776,42.45129739321197L136,40.737565187307496L139.0222222222222,32.40118969403778L142.04444444444445,51.545338979134215L145.06666666666666,48.875548821229216L148.08888888888887,32.7700619330773L151.11111111111111,36.20051336288452L154.13333333333333,45.3852754189418L157.15555555555554,41.13434890600351L160.17777777777778,77.10775749499982L163.2,35.16769068057718L166.22222222222223,32.06921447240387L169.24444444444444,30.29865547326895L172.26666666666665,39.409647978269135L175.2888888888889,35.684102021730865L178.3111111111111,36.57735914450424L181.33333333333331,28.749421449807954L184.35555555555555,28.63876304259665L187.37777777777777,28.675643737499513L190.39999999999998,28.49121577923114L193.42222222222222,28.56498533028821L196.44444444444443,28.56498533028821L199.46666666666664,28.49121577923114L202.48888888888888,28.601874186442444L205.51111111111112,28.454326923076906L208.53333333333336,28.4174380669227L211.55555555555557,28.601874186442444L214.57777777777778,28.49121577923114L217.60000000000002,28.528096474134003L220.62222222222223,28.4174380669227L223.64444444444445,28.601874186442444L226.66666666666669,28.454326923076906L229.6888888888889,28.56498533028821L232.7111111111111,28.56498533028821L235.73333333333335,28.712532593653748L238.75555555555556,28.56498533028821" style="fill: none;" fill="none"></path></g><g><path stroke="rgb(0, 119, 187)" stroke-width="2px" d="M30.22222222222222,162.41341141582683L33.24444444444444,160.7583301703517L36.266666666666666,160.04518905969766L39.288888888888884,157.13270113903744L42.31111111111111,153.50013886965237L45.33333333333333,147.60830605717805L48.355555555555554,140.4333164187578L51.37777777777778,133.43562078475952L54.400000000000006,125.22607521827405L57.422222222222224,115.1574169947551L60.44444444444444,109.0734326197551L63.46666666666667,104.57767672722157L66.48888888888888,98.1509891656729L69.5111111111111,93.65622078455412L72.53333333333333,88.50229261471677L75.55555555555556,83.40927186379068L78.57777777777777,80.21994460546054L81.6,77.98444727750925L84.62222222222222,71.96137032142053L87.64444444444445,69.41486402658316L90.66666666666666,66.95750308036804L93.68888888888888,64.9646724004012L96.71111111111111,63.143195354021515L99.73333333333332,59.052033497737014L102.75555555555556,58.49242465312665L105.77777777777779,56.531284112196715L108.80000000000001,55.700770689890945L111.82222222222222,54.763785582322356L114.84444444444445,53.00768015934872L117.86666666666667,50.623117575278656L120.88888888888889,50.8236884887402L123.91111111111111,50.73800351069525L126.93333333333334,47.92308181982776L129.95555555555555,47.112375754576476L132.97777777777776,45.755420813193695L136,47.00936443989096L139.0222222222222,44.391055455574644L142.04444444444445,43.77893711970404L145.06666666666666,42.96477068387546L148.08888888888887,42.232804371760466L151.11111111111111,41.37554652874289L154.13333333333333,42.28827639726492L157.15555555555554,40.738675117492676L160.17777777777778,40.90309984867389L163.2,41.401303438039946L166.22222222222223,39.73235201835632L169.24444444444444,39.22078029926004L172.26666666666665,38.446726413873506L175.2888888888889,39.449580981181214L178.3111111111111,37.39929509162903L181.33333333333331,34.044563751954286L184.35555555555555,32.69454587422882L187.37777777777777,32.09630166567288L190.39999999999998,32.26171390826883L193.42222222222222,32.55737156134384L196.44444444444443,33.089746310160706L199.46666666666664,31.42773195413443L202.48888888888888,31.828873781057496L205.51111111111112,31.22369250884421L208.53333333333336,31.414861660737245L211.55555555555557,32.003687785221956L214.57777777777778,32.40482961214505L217.60000000000002,32.172568559646606L220.62222222222223,31.723389607209413L223.64444444444445,31.522818693747865L226.66666666666669,32.07995467919568L229.6888888888889,31.704569761569672L232.7111111111111,32.09877452483542L235.73333333333335,31.338586605512177L238.75555555555556,32.06708438579852" style="fill: none;" fill="none"></path></g></g></g></g></g></g><g transform="translate(58, 178)" clip-path="url(#clip_1)"><clipPath id="clip_1"><rect width="272" height="22"></rect></clipPath><g><g><line x1="0" y1="0" x2="0" y2="5" style="visibility: inherit;" fill="rgb(0, 0, 0)" stroke="rgb(204, 204, 204)" stroke-width="1px"></line><line x1="30.22222222222222" y1="0" x2="30.22222222222222" y2="5" style="visibility: inherit;" fill="rgb(0, 0, 0)" stroke="rgb(204, 204, 204)" stroke-width="1px"></line><line x1="60.44444444444444" y1="0" x2="60.44444444444444" y2="5" style="visibility: inherit;" fill="rgb(0, 0, 0)" stroke="rgb(204, 204, 204)" stroke-width="1px"></line><line x1="90.66666666666666" y1="0" x2="90.66666666666666" y2="5" style="visibility: inherit;" fill="rgb(0, 0, 0)" stroke="rgb(204, 204, 204)" stroke-width="1px"></line><line x1="120.88888888888889" y1="0" x2="120.88888888888889" y2="5" style="visibility: inherit;" fill="rgb(0, 0, 0)" stroke="rgb(204, 204, 204)" stroke-width="1px"></line><line x1="151.11111111111111" y1="0" x2="151.11111111111111" y2="5" style="visibility: inherit;" fill="rgb(0, 0, 0)" stroke="rgb(204, 204, 204)" stroke-width="1px"></line><line x1="181.33333333333331" y1="0" x2="181.33333333333331" y2="5" style="visibility: inherit;" fill="rgb(0, 0, 0)" stroke="rgb(204, 204, 204)" stroke-width="1px"></line><line x1="211.55555555555557" y1="0" x2="211.55555555555557" y2="5" style="visibility: inherit;" fill="rgb(0, 0, 0)" stroke="rgb(204, 204, 204)" stroke-width="1px"></line><line x1="241.77777777777777" y1="0" x2="241.77777777777777" y2="5" style="visibility: inherit;" fill="rgb(0, 0, 0)" stroke="rgb(204, 204, 204)" stroke-width="1px"></line><line x1="272" y1="0" x2="272" y2="5" style="visibility: inherit;" fill="rgb(0, 0, 0)" stroke="rgb(204, 204, 204)" stroke-width="1px"></line></g><g transform="translate(0, 8)"><text x="0" y="0" dx="0em" dy="0.95em" style="text-anchor: middle; visibility: hidden; font-family: &quot;Helvetica Neue&quot;, sans-serif; font-size: 12px; font-weight: 200;" fill="rgb(50, 49, 63)" stroke="none" stroke-width="1px">-10</text><text x="30.22222222222222" y="0" dx="0em" dy="0.95em" style="text-anchor: middle; visibility: inherit; font-family: &quot;Helvetica Neue&quot;, sans-serif; font-size: 12px; font-weight: 200;" fill="rgb(50, 49, 63)" stroke="none" stroke-width="1px">0</text><text x="60.44444444444444" y="0" dx="0em" dy="0.95em" style="text-anchor: middle; visibility: inherit; font-family: &quot;Helvetica Neue&quot;, sans-serif; font-size: 12px; font-weight: 200;" fill="rgb(50, 49, 63)" stroke="none" stroke-width="1px">10</text><text x="90.66666666666666" y="0" dx="0em" dy="0.95em" style="text-anchor: middle; visibility: inherit; font-family: &quot;Helvetica Neue&quot;, sans-serif; font-size: 12px; font-weight: 200;" fill="rgb(50, 49, 63)" stroke="none" stroke-width="1px">20</text><text x="120.88888888888889" y="0" dx="0em" dy="0.95em" style="text-anchor: middle; visibility: inherit; font-family: &quot;Helvetica Neue&quot;, sans-serif; font-size: 12px; font-weight: 200;" fill="rgb(50, 49, 63)" stroke="none" stroke-width="1px">30</text><text x="151.11111111111111" y="0" dx="0em" dy="0.95em" style="text-anchor: middle; visibility: inherit; font-family: &quot;Helvetica Neue&quot;, sans-serif; font-size: 12px; font-weight: 200;" fill="rgb(50, 49, 63)" stroke="none" stroke-width="1px">40</text><text x="181.33333333333331" y="0" dx="0em" dy="0.95em" style="text-anchor: middle; visibility: inherit; font-family: &quot;Helvetica Neue&quot;, sans-serif; font-size: 12px; font-weight: 200;" fill="rgb(50, 49, 63)" stroke="none" stroke-width="1px">50</text><text x="211.55555555555557" y="0" dx="0em" dy="0.95em" style="text-anchor: middle; visibility: inherit; font-family: &quot;Helvetica Neue&quot;, sans-serif; font-size: 12px; font-weight: 200;" fill="rgb(50, 49, 63)" stroke="none" stroke-width="1px">60</text><text x="241.77777777777777" y="0" dx="0em" dy="0.95em" style="text-anchor: middle; visibility: inherit; font-family: &quot;Helvetica Neue&quot;, sans-serif; font-size: 12px; font-weight: 200;" fill="rgb(50, 49, 63)" stroke="none" stroke-width="1px">70</text><text x="272" y="0" dx="0em" dy="0.95em" style="text-anchor: middle; visibility: hidden; font-family: &quot;Helvetica Neue&quot;, sans-serif; font-size: 12px; font-weight: 200;" fill="rgb(50, 49, 63)" stroke="none" stroke-width="1px">80</text></g><line x1="0" y1="0" x2="272" y2="0" fill="rgb(0, 0, 0)" stroke="rgb(204, 204, 204)" stroke-width="1px"></line></g></g></g></g></svg>