<svg viewBox="0 0 330 200" xmlns="http://www.w3.org/2000/svg"><g><g><g><g><g><line x1="58" y1="178" x2="53" y2="178" style="visibility: inherit;" fill="rgb(0, 0, 0)" stroke="rgb(204, 204, 204)" stroke-width="1px"></line><line x1="58" y1="163.16666666666666" x2="53" y2="163.16666666666666" style="visibility: inherit;" fill="rgb(0, 0, 0)" stroke="rgb(204, 204, 204)" stroke-width="1px"></line><line x1="58" y1="148.33333333333334" x2="53" y2="148.33333333333334" style="visibility: inherit;" fill="rgb(0, 0, 0)" stroke="rgb(204, 204, 204)" stroke-width="1px"></line><line x1="58" y1="133.5" x2="53" y2="133.5" style="visibility: inherit;" fill="rgb(0, 0, 0)" stroke="rgb(204, 204, 204)" stroke-width="1px"></line><line x1="58" y1="118.66666666666667" x2="53" y2="118.66666666666667" style="visibility: inherit;" fill="rgb(0, 0, 0)" stroke="rgb(204, 204, 204)" stroke-width="1px"></line><line x1="58" y1="103.83333333333333" x2="53" y2="103.83333333333333" style="visibility: inherit;" fill="rgb(0, 0, 0)" stroke="rgb(204, 204, 204)" stroke-width="1px"></line><line x1="58" y1="89" x2="53" y2="89" style="visibility: inherit;" fill="rgb(0, 0, 0)" stroke="rgb(204, 204, 204)" stroke-width="1px"></line><line x1="58" y1="74.16666666666666" x2="53" y2="74.16666666666666" style="visibility: inherit;" fill="rgb(0, 0, 0)" stroke="rgb(204, 204, 204)" stroke-width="1px"></line><line x1="58" y1="59.33333333333334" x2="53" y2="59.33333333333334" style="visibility: inherit;" fill="rgb(0, 0, 0)" stroke="rgb(204, 204, 204)" stroke-width="1px"></line><line x1="58" y1="44.5" x2="53" y2="44.5" style="visibility: inherit;" fill="rgb(0, 0, 0)" stroke="rgb(204, 204, 204)" stroke-width="1px"></line><line x1="58" y1="29.666666666666657" x2="53" y2="29.666666666666657" style="visibility: inherit;" fill="rgb(0, 0, 0)" stroke="rgb(204, 204, 204)" stroke-width="1px"></line><line x1="58" y1="14.833333333333343" x2="53" y2="14.833333333333343" style="visibility: inherit;" fill="rgb(0, 0, 0)" stroke="rgb(204, 204, 204)" stroke-width="1px"></line><line x1="58" y1="0" x2="53" y2="0" style="visibility: inherit;" fill="rgb(0, 0, 0)" stroke="rgb(204, 204, 204)" stroke-width="1px"></line></g><g transform="translate(48, 0)"><text x="0" y="178" dx="0em" dy="0.3em" style="text-anchor: end; visibility: hidden; font-family: &quot;Helvetica Neue&quot;, sans-serif; font-size: 12px; font-weight: 200;" fill="rgb(50, 49, 63)" stroke="none" stroke-width="1px">-0.5</text><text x="0" y="163.16666666666666" dx="0em" dy="0.3em" style="text-anchor: end; visibility: inherit; font-family: &quot;Helvetica Neue&quot;, sans-serif; font-size: 12px; font-weight: 200;" fill="rgb(50, 49, 63)" stroke="none" stroke-width="1px">0</text><text x="0" y="148.33333333333334" dx="0em" dy="0.3em" style="text-anchor: end; visibility: hidden; font-family: &quot;Helvetica Neue&quot;, sans-serif; font-size: 12px; font-weight: 200;" fill="rgb(50, 49, 63)" stroke="none" stroke-width="1px">0.5</text><text x="0" y="133.5" dx="0em" dy="0.3em" style="text-anchor: end; visibility: inherit; font-family: &quot;Helvetica Neue&quot;, sans-serif; font-size: 12px; font-weight: 200;" fill="rgb(50, 49, 63)" stroke="none" stroke-width="1px">1</text><text x="0" y="118.66666666666667" dx="0em" dy="0.3em" style="text-anchor: end; visibility: hidden; font-family: &quot;Helvetica Neue&quot;, sans-serif; font-size: 12px; font-weight: 200;" fill="rgb(50, 49, 63)" stroke="none" stroke-width="1px">1.5</text><text x="0" y="103.83333333333333" dx="0em" dy="0.3em" style="text-anchor: end; visibility: inherit; font-family: &quot;Helvetica Neue&quot;, sans-serif; font-size: 12px; font-weight: 200;" fill="rgb(50, 49, 63)" stroke="none" stroke-width="1px">2</text><text x="0" y="89" dx="0em" dy="0.3em" style="text-anchor: end; visibility: hidden; font-family: &quot;Helvetica Neue&quot;, sans-serif; font-size: 12px; font-weight: 200;" fill="rgb(50, 49, 63)" stroke="none" stroke-width="1px">2.5</text><text x="0" y="74.16666666666666" dx="0em" dy="0.3em" style="text-anchor: end; visibility: inherit; font-family: &quot;Helvetica Neue&quot;, sans-serif; font-size: 12px; font-weight: 200;" fill="rgb(50, 49, 63)" stroke="none" stroke-width="1px">3</text><text x="0" y="59.33333333333334" dx="0em" dy="0.3em" style="text-anchor: end; visibility: hidden; font-family: &quot;Helvetica Neue&quot;, sans-serif; font-size: 12px; font-weight: 200;" fill="rgb(50, 49, 63)" stroke="none" stroke-width="1px">3.5</text><text x="0" y="44.5" dx="0em" dy="0.3em" style="text-anchor: end; visibility: inherit; font-family: &quot;Helvetica Neue&quot;, sans-serif; font-size: 12px; font-weight: 200;" fill="rgb(50, 49, 63)" stroke="none" stroke-width="1px">4</text><text x="0" y="29.666666666666657" dx="0em" dy="0.3em" style="text-anchor: end; visibility: hidden; font-family: &quot;Helvetica Neue&quot;, sans-serif; font-size: 12px; font-weight: 200;" fill="rgb(50, 49, 63)" stroke="none" stroke-width="1px">4.5</text><text x="0" y="14.833333333333343" dx="0em" dy="0.3em" style="text-anchor: end; visibility: inherit; font-family: &quot;Helvetica Neue&quot;, sans-serif; font-size: 12px; font-weight: 200;" fill="rgb(50, 49, 63)" stroke="none" stroke-width="1px">5</text><text x="0" y="0" dx="0em" dy="0.3em" style="text-anchor: end; visibility: hidden; font-family: &quot;Helvetica Neue&quot;, sans-serif; font-size: 12px; font-weight: 200;" fill="rgb(50, 49, 63)" stroke="none" stroke-width="1px">5.5</text></g><line x1="58" y1="0" x2="58" y2="178" fill="rgb(0, 0, 0)" stroke="rgb(204, 204, 204)" stroke-width="1px"></line></g></g><g transform="translate(58, 0)" clip-path="url(#clip_0)"><clipPath id="clip_0"><rect width="272" height="178"></rect></clipPath><g><g><g><line x1="0" y1="0" x2="0" y2="178" fill="rgb(0, 0, 0)" stroke="rgb(60, 60, 60)" stroke-width="1px" opacity="0.25"></line><line x1="30.22222222222222" y1="0" x2="30.22222222222222" y2="178" fill="rgb(0, 0, 0)" stroke="rgb(60, 60, 60)" stroke-width="1px" opacity="0.25"></line><line x1="60.44444444444444" y1="0" x2="60.44444444444444" y2="178" fill="rgb(0, 0, 0)" stroke="rgb(60, 60, 60)" stroke-width="1px" opacity="0.25"></line><line x1="90.66666666666666" y1="0" x2="90.66666666666666" y2="178" fill="rgb(0, 0, 0)" stroke="rgb(60, 60, 60)" stroke-width="1px" opacity="0.25"></line><line x1="120.88888888888889" y1="0" x2="120.88888888888889" y2="178" fill="rgb(0, 0, 0)" stroke="rgb(60, 60, 60)" stroke-width="1px" opacity="0.25"></line><line x1="151.11111111111111" y1="0" x2="151.11111111111111" y2="178" fill="rgb(0, 0, 0)" stroke="rgb(60, 60, 60)" stroke-width="1px" opacity="0.25"></line><line x1="181.33333333333331" y1="0" x2="181.33333333333331" y2="178" fill="rgb(0, 0, 0)" stroke="rgb(60, 60, 60)" stroke-width="1px" opacity="0.25"></line><line x1="211.55555555555557" y1="0" x2="211.55555555555557" y2="178" fill="rgb(0, 0, 0)" stroke="rgb(60, 60, 60)" stroke-width="1px" opacity="0.25"></line><line x1="241.77777777777777" y1="0" x2="241.77777777777777" y2="178" fill="rgb(0, 0, 0)" stroke="rgb(60, 60, 60)" stroke-width="1px" opacity="0.25"></line><line x1="272" y1="0" x2="272" y2="178" fill="rgb(0, 0, 0)" stroke="rgb(60, 60, 60)" stroke-width="1px" opacity="0.25"></line></g><g><line x1="0" y1="178" x2="272" y2="178" fill="rgb(0, 0, 0)" stroke="rgb(60, 60, 60)" stroke-width="1px" opacity="0.25"></line><line x1="0" y1="163.16666666666666" x2="272" y2="163.16666666666666" fill="rgb(0, 0, 0)" stroke="rgb(60, 60, 60)" stroke-width="1px" opacity="0.25"></line><line x1="0" y1="148.33333333333334" x2="272" y2="148.33333333333334" fill="rgb(0, 0, 0)" stroke="rgb(60, 60, 60)" stroke-width="1px" opacity="0.25"></line><line x1="0" y1="133.5" x2="272" y2="133.5" fill="rgb(0, 0, 0)" stroke="rgb(60, 60, 60)" stroke-width="1px" opacity="0.25"></line><line x1="0" y1="118.66666666666667" x2="272" y2="118.66666666666667" fill="rgb(0, 0, 0)" stroke="rgb(60, 60, 60)" stroke-width="1px" opacity="0.25"></line><line x1="0" y1="103.83333333333333" x2="272" y2="103.83333333333333" fill="rgb(0, 0, 0)" stroke="rgb(60, 60, 60)" stroke-width="1px" opacity="0.25"></line><line x1="0" y1="89" x2="272" y2="89" fill="rgb(0, 0, 0)" stroke="rgb(60, 60, 60)" stroke-width="1px" opacity="0.25"></line><line x1="0" y1="74.16666666666666" x2="272" y2="74.16666666666666" fill="rgb(0, 0, 0)" stroke="rgb(60, 60, 60)" stroke-width="1px" opacity="0.25"></line><line x1="0" y1="59.33333333333334" x2="272" y2="59.33333333333334" fill="rgb(0, 0, 0)" stroke="rgb(60, 60, 60)" stroke-width="1px" opacity="0.25"></line><line x1="0" y1="44.5" x2="272" y2="44.5" fill="rgb(0, 0, 0)" stroke="rgb(60, 60, 60)" stroke-width="1px" opacity="0.25"></line><line x1="0" y1="29.666666666666657" x2="272" y2="29.666666666666657" fill="rgb(0, 0, 0)" stroke="rgb(60, 60, 60)" stroke-width="1px" opacity="0.25"></line><line x1="0" y1="14.833333333333343" x2="272" y2="14.833333333333343" fill="rgb(0, 0, 0)" stroke="rgb(60, 60, 60)" stroke-width="1px" opacity="0.25"></line><line x1="0" y1="0" x2="272" y2="0" fill="rgb(0, 0, 0)" stroke="rgb(60, 60, 60)" stroke-width="1px" opacity="0.25"></line></g></g></g><g><g><line x1="0" y1="163.16666666666666" x2="272" y2="163.16666666666666" fill="rgb(0, 0, 0)" stroke="rgb(153, 153, 153)" stroke-width="1.5px"></line></g></g><g><g><line x1="30.22222222222222" y1="0" x2="30.22222222222222" y2="178" fill="rgb(0, 0, 0)" stroke="rgb(153, 153, 153)" stroke-width="1.5px"></line></g></g><g><g><g><g><g><path stroke="rgb(238, 51, 119)" stroke-width="2px" d="M30.22222222222222,-2.2324352264404297L33.24444444444444,24.781663835048676L36.266666666666666,30.509046204236085L39.288888888888884,33.69288828969002L42.31111111111111,0.9336244099785063L45.33333333333333,34.7055588601483L48.355555555555554,56.424661409571584L51.37777777777778,49.15082248743303L54.400000000000006,71.4847448209541L57.422222222222224,89.09846038791991L60.44444444444444,100.28150142974123L63.46666666666667,108.46425781732235L66.48888888888888,108.69580230671146L69.5111111111111,116.5410415530091L72.53333333333333,125.74918857224085L75.55555555555556,130.60057685978L78.57777777777777,131.31537628912795L81.6,135.53842562635649L84.62222222222222,135.35383170662215L87.64444444444445,97.66617495891762L90.66666666666666,112.43837849400586L93.68888888888888,121.25840412509228L96.71111111111111,130.83133936664237L99.73333333333332,137.38428331687817L102.75555555555556,132.00865592878378L105.77777777777779,139.79590154256002L108.80000000000001,134.49479590830694L111.82222222222222,141.6664283863057L114.84444444444445,143.1671561560051L117.86666666666667,146.72583397786835L120.88888888888889,148.81596233293294L123.91111111111111,152.03277500945592L126.93333333333334,149.13227934782356L129.95555555555555,152.4259303826698L132.97777777777776,151.89439839513946L136,152.47838533363196L139.0222222222222,154.71132456914512L142.04444444444445,150.17228858169858L145.06666666666666,149.58984406558218L148.08888888888887,152.8706381648977L151.11111111111111,154.30126684205436L154.13333333333333,152.53759184969053L157.15555555555554,153.08516129366026L160.17777777777778,132.5954331869836L163.2,142.239922096239L166.22222222222223,148.7431461337727L169.24444444444444,153.1283539181714L172.26666666666665,152.0700150953948L175.2888888888889,153.85684195126834L178.3111111111111,154.73176716943738L181.33333333333331,157.4925454016471L184.35555555555555,159.19710210995044L187.37777777777777,160.23907594156148L190.39999999999998,160.92478515518906L193.42222222222222,161.28470377463046L196.44444444444443,161.54627501520292L199.46666666666664,161.70201842965355L202.48888888888888,161.78382089921834L205.51111111111112,161.8477762819668L208.53333333333336,161.8552038827344L211.55555555555557,161.8641405349257L214.57777777777778,161.88870714427725L217.60000000000002,161.91780392421302L220.62222222222223,161.898643616893L223.64444444444445,161.86529929333415L226.66666666666669,161.92655806378616L229.6888888888889,161.88211489053225L232.7111111111111,161.89495132365815L235.73333333333335,161.80647254039243L238.75555555555556,161.82332026093837" style="fill: none;" fill="none"></path></g><g><path stroke="rgb(51, 187, 238)" stroke-width="2px" d="M30.22222222222222,33.441147486368806L33.24444444444444,37.56077714761099L36.266666666666666,40.123415210620095L39.288888888888884,44.272657177611904L42.31111111111111,50.983034319715486L45.33333333333333,60.602759581012535L48.355555555555554,70.5835734993588L51.37777777777778,80.51566880013493L54.400000000000006,89.54313494605618L57.422222222222224,97.82242213071174L60.44444444444444,104.3111309810951L63.46666666666667,109.75698721206882L66.48888888888888,114.90243977360892L69.5111111111111,119.20814003028006L72.53333333333333,122.92774811699539L75.55555555555556,126.19632605504177L78.57777777777777,129.14918149095303L81.6,131.21215133301655L84.62222222222222,133.5766045078925L87.64444444444445,135.45416848218653L90.66666666666666,137.00328051481443L93.68888888888888,138.65470432152398L96.71111111111111,139.95087660314766L99.73333333333332,141.46343926232112L102.75555555555556,142.74180524387424L105.77777777777779,143.66319566883612L108.80000000000001,144.54074607256024L111.82222222222222,145.38865992221292L114.84444444444445,146.09569128652078L117.86666666666667,147.16392397435783L120.88888888888889,147.83892529352772L123.91111111111111,148.2729730662099L126.93333333333334,149.14747738581872L129.95555555555555,149.926456992744L132.97777777777776,150.51764529663473L136,150.7004126471346L139.0222222222222,151.4678175792144L142.04444444444445,152.0191277451947L145.06666666666666,152.48709843984008L148.08888888888887,152.89207679344167L151.11111111111111,153.30018178046464L154.13333333333333,153.36463089839174L157.15555555555554,153.71667726877894L160.17777777777778,153.80164204465964L163.2,153.6977741147626L166.22222222222223,154.11462158914316L169.24444444444444,154.58978465969696L172.26666666666665,155.0923085894817L175.2888888888889,155.2281095953781L178.3111111111111,155.72513143849767L181.33333333333331,156.71310396571874L184.35555555555555,157.68707934765257L187.37777777777777,158.31548657068663L190.39999999999998,158.78214166889072L193.42222222222222,158.98704199987353L196.44444444444443,159.09574920732405L199.46666666666664,159.34212389070967L202.48888888888888,159.44726042536408L205.51111111111112,159.56838770262902L208.53333333333336,159.6767795208246L211.55555555555557,159.6834874812653L214.57777777777778,159.65373023334485L217.60000000000002,159.67710807710893L220.62222222222223,159.76972913020853L223.64444444444445,159.86599038803976L226.66666666666669,159.76598296521743L229.6888888888889,159.85782702639884L232.7111111111111,159.80247044985603L235.73333333333335,159.88568327680295L238.75555555555556,159.82705353710094" style="fill: none;" fill="none"></path></g></g></g></g><g opacity="0.2"><g><g><g><path stroke="rgb(238, 51, 119)" stroke-width="2px" d="M30.22222222222222,-2.2324352264404297L33.24444444444444,40.99012327194214L36.266666666666666,36.007333278656006L39.288888888888884,37.43708658218384L42.31111111111111,-41.836870511372865L45.33333333333333,81.42430210113525L48.355555555555554,87.48332556088766L51.37777777777778,38.54549551010132L54.400000000000006,104.42294212182362L57.422222222222224,115.25277523199718L60.44444444444444,116.9546336332957L63.46666666666667,120.69386219978333L66.48888888888888,109.04236300786336L69.5111111111111,128.29353078206378L72.53333333333333,139.55058526992798L75.55555555555556,137.87423771619797L78.57777777777777,132.38727295398712L81.6,141.87192740043005L84.62222222222222,135.07696894804636L87.64444444444445,41.138134638468415L90.66666666666666,134.5958736538887L93.68888888888888,134.48815234502158L96.71111111111111,145.1905532280604L99.73333333333332,147.21362161636353L102.75555555555556,123.94525305430095L105.77777777777779,151.476736754179L108.80000000000001,126.54315102100372L111.82222222222222,152.42386609315872L114.84444444444445,145.41824642817178L117.86666666666667,152.06384874383608L120.88888888888889,151.9511541724205L123.91111111111111,156.85799338420233L126.93333333333334,144.781536201636L129.95555555555555,157.36640669902167L132.97777777777776,151.09710043668747L136,153.354365726312L139.0222222222222,158.0607333878676L142.04444444444445,143.36373464266458L145.06666666666666,148.71617729465166L148.08888888888887,157.791829302907L151.11111111111111,156.44720985492071L154.13333333333333,149.89207936326662L157.15555555555554,153.9065154592196L160.17777777777778,101.8608410358429L163.2,156.70665545761585L166.22222222222223,158.49798218905926L169.24444444444444,159.70616559435925L172.26666666666665,150.48250686128935L175.2888888888889,156.5370822350184L178.3111111111111,156.04415499667326L181.33333333333331,161.63371274992824L184.35555555555555,161.753937172393L187.37777777777777,161.80203668897352L190.39999999999998,161.95334897562861L193.42222222222222,161.824581703792L196.44444444444443,161.93863187606135L199.46666666666664,161.93563355132937L202.48888888888888,161.90652460356554L205.51111111111112,161.94370935608944L208.53333333333336,161.8663452838858L211.55555555555557,161.87754551321268L214.57777777777778,161.92555705830455L217.60000000000002,161.9614490941167L220.62222222222223,161.86990315591297L223.64444444444445,161.81528280799589L226.66666666666669,162.01844621946415L229.6888888888889,161.81545013065139L232.7111111111111,161.91420597334704L235.73333333333335,161.67375436549386L238.75555555555556,161.8485918417573" style="fill: none;" fill="none"></path></g><g><path stroke="rgb(51, 187, 238)" stroke-width="2px" d="M30.22222222222222,33.441147486368806L33.24444444444444,40.03255494435629L36.266666666666666,42.583547751108796L39.288888888888884,49.15216573079428L42.31111111111111,59.74410271644592L45.33333333333333,73.91030271848044L48.355555555555554,84.85629709561667L51.37777777777778,94.99675909678142L54.400000000000006,102.85689401626587L57.422222222222224,110.11619869867961L60.44444444444444,113.98534214496613L63.46666666666667,117.89613544940948L66.48888888888888,122.60381782054901L69.5111111111111,125.65825510025024L72.53333333333333,128.50278798739117L75.55555555555556,131.09688770771027L78.57777777777777,133.57721509536108L81.6,134.3060823082924L84.62222222222222,137.12292406956354L87.64444444444445,138.27034282684326L90.66666666666666,139.32686360677084L93.68888888888888,141.13178569078445L96.71111111111111,141.89510943492255L99.73333333333332,143.7322653333346L102.75555555555556,144.65934513012567L105.77777777777779,145.04527737696966L108.80000000000001,145.85706943273544L111.82222222222222,146.66052939494452L114.84444444444445,147.15623768170676L117.86666666666667,148.76627241571745L120.88888888888889,148.85142704844475L123.91111111111111,148.92404463887215L126.93333333333334,150.45923376083374L129.95555555555555,151.0949263473352L132.97777777777776,151.4044277270635L136,150.97456366817156L139.0222222222222,152.6189249654611L142.04444444444445,152.84609298904738L145.06666666666666,153.18905447920164L148.08888888888887,153.4995443224907L151.11111111111111,153.9123392601808L154.13333333333333,153.46130457520485L157.15555555555554,154.2447468241056L160.17777777777778,153.92908920844397L163.2,153.541972219944L166.22222222222223,154.73989280064902L169.24444444444444,155.30252926548323L172.26666666666665,155.84609448413053L175.2888888888889,155.43181110421816L178.3111111111111,156.47066420316696L181.33333333333331,158.1950627565384L184.35555555555555,159.1480424205462L187.37777777777777,159.25809740523496L190.39999999999998,159.48212431619564L193.42222222222222,159.29439249634743L196.44444444444443,159.2588100184997L199.46666666666664,159.71168591578802L202.48888888888888,159.60496522734562L205.51111111111112,159.75007861852646L208.53333333333336,159.83936724811792L211.55555555555557,159.69354942192635L214.57777777777778,159.60909436146417L217.60000000000002,159.712174842755L220.62222222222223,159.90866070985794L223.64444444444445,160.01038227478662L226.66666666666669,159.61597183098397L229.6888888888889,159.9955931181709L232.7111111111111,159.71943558504185L235.73333333333335,160.01050251722336L238.75555555555556,159.73910892754793" style="fill: none;" fill="none"></path></g></g></g></g></g></g><g transform="translate(58, 178)" clip-path="url(#clip_1)"><clipPath id="clip_1"><rect width="272" height="22"></rect></clipPath><g><g><line x1="0" y1="0" x2="0" y2="5" style="visibility: inherit;" fill="rgb(0, 0, 0)" stroke="rgb(204, 204, 204)" stroke-width="1px"></line><line x1="30.22222222222222" y1="0" x2="30.22222222222222" y2="5" style="visibility: inherit;" fill="rgb(0, 0, 0)" stroke="rgb(204, 204, 204)" stroke-width="1px"></line><line x1="60.44444444444444" y1="0" x2="60.44444444444444" y2="5" style="visibility: inherit;" fill="rgb(0, 0, 0)" stroke="rgb(204, 204, 204)" stroke-width="1px"></line><line x1="90.66666666666666" y1="0" x2="90.66666666666666" y2="5" style="visibility: inherit;" fill="rgb(0, 0, 0)" stroke="rgb(204, 204, 204)" stroke-width="1px"></line><line x1="120.88888888888889" y1="0" x2="120.88888888888889" y2="5" style="visibility: inherit;" fill="rgb(0, 0, 0)" stroke="rgb(204, 204, 204)" stroke-width="1px"></line><line x1="151.11111111111111" y1="0" x2="151.11111111111111" y2="5" style="visibility: inherit;" fill="rgb(0, 0, 0)" stroke="rgb(204, 204, 204)" stroke-width="1px"></line><line x1="181.33333333333331" y1="0" x2="181.33333333333331" y2="5" style="visibility: inherit;" fill="rgb(0, 0, 0)" stroke="rgb(204, 204, 204)" stroke-width="1px"></line><line x1="211.55555555555557" y1="0" x2="211.55555555555557" y2="5" style="visibility: inherit;" fill="rgb(0, 0, 0)" stroke="rgb(204, 204, 204)" stroke-width="1px"></line><line x1="241.77777777777777" y1="0" x2="241.77777777777777" y2="5" style="visibility: inherit;" fill="rgb(0, 0, 0)" stroke="rgb(204, 204, 204)" stroke-width="1px"></line><line x1="272" y1="0" x2="272" y2="5" style="visibility: inherit;" fill="rgb(0, 0, 0)" stroke="rgb(204, 204, 204)" stroke-width="1px"></line></g><g transform="translate(0, 8)"><text x="0" y="0" dx="0em" dy="0.95em" style="text-anchor: middle; visibility: hidden; font-family: &quot;Helvetica Neue&quot;, sans-serif; font-size: 12px; font-weight: 200;" fill="rgb(50, 49, 63)" stroke="none" stroke-width="1px">-10</text><text x="30.22222222222222" y="0" dx="0em" dy="0.95em" style="text-anchor: middle; visibility: inherit; font-family: &quot;Helvetica Neue&quot;, sans-serif; font-size: 12px; font-weight: 200;" fill="rgb(50, 49, 63)" stroke="none" stroke-width="1px">0</text><text x="60.44444444444444" y="0" dx="0em" dy="0.95em" style="text-anchor: middle; visibility: inherit; font-family: &quot;Helvetica Neue&quot;, sans-serif; font-size: 12px; font-weight: 200;" fill="rgb(50, 49, 63)" stroke="none" stroke-width="1px">10</text><text x="90.66666666666666" y="0" dx="0em" dy="0.95em" style="text-anchor: middle; visibility: inherit; font-family: &quot;Helvetica Neue&quot;, sans-serif; font-size: 12px; font-weight: 200;" fill="rgb(50, 49, 63)" stroke="none" stroke-width="1px">20</text><text x="120.88888888888889" y="0" dx="0em" dy="0.95em" style="text-anchor: middle; visibility: inherit; font-family: &quot;Helvetica Neue&quot;, sans-serif; font-size: 12px; font-weight: 200;" fill="rgb(50, 49, 63)" stroke="none" stroke-width="1px">30</text><text x="151.11111111111111" y="0" dx="0em" dy="0.95em" style="text-anchor: middle; visibility: inherit; font-family: &quot;Helvetica Neue&quot;, sans-serif; font-size: 12px; font-weight: 200;" fill="rgb(50, 49, 63)" stroke="none" stroke-width="1px">40</text><text x="181.33333333333331" y="0" dx="0em" dy="0.95em" style="text-anchor: middle; visibility: inherit; font-family: &quot;Helvetica Neue&quot;, sans-serif; font-size: 12px; font-weight: 200;" fill="rgb(50, 49, 63)" stroke="none" stroke-width="1px">50</text><text x="211.55555555555557" y="0" dx="0em" dy="0.95em" style="text-anchor: middle; visibility: inherit; font-family: &quot;Helvetica Neue&quot;, sans-serif; font-size: 12px; font-weight: 200;" fill="rgb(50, 49, 63)" stroke="none" stroke-width="1px">60</text><text x="241.77777777777777" y="0" dx="0em" dy="0.95em" style="text-anchor: middle; visibility: inherit; font-family: &quot;Helvetica Neue&quot;, sans-serif; font-size: 12px; font-weight: 200;" fill="rgb(50, 49, 63)" stroke="none" stroke-width="1px">70</text><text x="272" y="0" dx="0em" dy="0.95em" style="text-anchor: middle; visibility: hidden; font-family: &quot;Helvetica Neue&quot;, sans-serif; font-size: 12px; font-weight: 200;" fill="rgb(50, 49, 63)" stroke="none" stroke-width="1px">80</text></g><line x1="0" y1="0" x2="272" y2="0" fill="rgb(0, 0, 0)" stroke="rgb(204, 204, 204)" stroke-width="1px"></line></g></g></g></g></svg>