<svg viewBox="0 0 330 200" xmlns="http://www.w3.org/2000/svg"><g><g><g><g><g><line x1="58" y1="178" x2="53" y2="178" style="visibility: inherit;" fill="rgb(0, 0, 0)" stroke="rgb(204, 204, 204)" stroke-width="1px"></line><line x1="58" y1="160.2" x2="53" y2="160.2" style="visibility: inherit;" fill="rgb(0, 0, 0)" stroke="rgb(204, 204, 204)" stroke-width="1px"></line><line x1="58" y1="142.4" x2="53" y2="142.4" style="visibility: inherit;" fill="rgb(0, 0, 0)" stroke="rgb(204, 204, 204)" stroke-width="1px"></line><line x1="58" y1="124.6" x2="53" y2="124.6" style="visibility: inherit;" fill="rgb(0, 0, 0)" stroke="rgb(204, 204, 204)" stroke-width="1px"></line><line x1="58" y1="106.8" x2="53" y2="106.8" style="visibility: inherit;" fill="rgb(0, 0, 0)" stroke="rgb(204, 204, 204)" stroke-width="1px"></line><line x1="58" y1="89" x2="53" y2="89" style="visibility: inherit;" fill="rgb(0, 0, 0)" stroke="rgb(204, 204, 204)" stroke-width="1px"></line><line x1="58" y1="71.2" x2="53" y2="71.2" style="visibility: inherit;" fill="rgb(0, 0, 0)" stroke="rgb(204, 204, 204)" stroke-width="1px"></line><line x1="58" y1="53.400000000000006" x2="53" y2="53.400000000000006" style="visibility: inherit;" fill="rgb(0, 0, 0)" stroke="rgb(204, 204, 204)" stroke-width="1px"></line><line x1="58" y1="35.599999999999994" x2="53" y2="35.599999999999994" style="visibility: inherit;" fill="rgb(0, 0, 0)" stroke="rgb(204, 204, 204)" stroke-width="1px"></line><line x1="58" y1="17.799999999999983" x2="53" y2="17.799999999999983" style="visibility: inherit;" fill="rgb(0, 0, 0)" stroke="rgb(204, 204, 204)" stroke-width="1px"></line><line x1="58" y1="0" x2="53" y2="0" style="visibility: inherit;" fill="rgb(0, 0, 0)" stroke="rgb(204, 204, 204)" stroke-width="1px"></line></g><g transform="translate(48, 0)"><text x="0" y="178" dx="0em" dy="0.3em" style="text-anchor: end; visibility: hidden; font-family: &quot;Helvetica Neue&quot;, sans-serif; font-size: 12px; font-weight: 200;" fill="rgb(50, 49, 63)" stroke="none" stroke-width="1px">-0.5</text><text x="0" y="160.2" dx="0em" dy="0.3em" style="text-anchor: end; visibility: inherit; font-family: &quot;Helvetica Neue&quot;, sans-serif; font-size: 12px; font-weight: 200;" fill="rgb(50, 49, 63)" stroke="none" stroke-width="1px">0</text><text x="0" y="142.4" dx="0em" dy="0.3em" style="text-anchor: end; visibility: hidden; font-family: &quot;Helvetica Neue&quot;, sans-serif; font-size: 12px; font-weight: 200;" fill="rgb(50, 49, 63)" stroke="none" stroke-width="1px">0.5</text><text x="0" y="124.6" dx="0em" dy="0.3em" style="text-anchor: end; visibility: inherit; font-family: &quot;Helvetica Neue&quot;, sans-serif; font-size: 12px; font-weight: 200;" fill="rgb(50, 49, 63)" stroke="none" stroke-width="1px">1</text><text x="0" y="106.8" dx="0em" dy="0.3em" style="text-anchor: end; visibility: hidden; font-family: &quot;Helvetica Neue&quot;, sans-serif; font-size: 12px; font-weight: 200;" fill="rgb(50, 49, 63)" stroke="none" stroke-width="1px">1.5</text><text x="0" y="89" dx="0em" dy="0.3em" style="text-anchor: end; visibility: inherit; font-family: &quot;Helvetica Neue&quot;, sans-serif; font-size: 12px; font-weight: 200;" fill="rgb(50, 49, 63)" stroke="none" stroke-width="1px">2</text><text x="0" y="71.2" dx="0em" dy="0.3em" style="text-anchor: end; visibility: hidden; font-family: &quot;Helvetica Neue&quot;, sans-serif; font-size: 12px; font-weight: 200;" fill="rgb(50, 49, 63)" stroke="none" stroke-width="1px">2.5</text><text x="0" y="53.400000000000006" dx="0em" dy="0.3em" style="text-anchor: end; visibility: inherit; font-family: &quot;Helvetica Neue&quot;, sans-serif; font-size: 12px; font-weight: 200;" fill="rgb(50, 49, 63)" stroke="none" stroke-width="1px">3</text><text x="0" y="35.599999999999994" dx="0em" dy="0.3em" style="text-anchor: end; visibility: hidden; font-family: &quot;Helvetica Neue&quot;, sans-serif; font-size: 12px; font-weight: 200;" fill="rgb(50, 49, 63)" stroke="none" stroke-width="1px">3.5</text><text x="0" y="17.799999999999983" dx="0em" dy="0.3em" style="text-anchor: end; visibility: inherit; font-family: &quot;Helvetica Neue&quot;, sans-serif; font-size: 12px; font-weight: 200;" fill="rgb(50, 49, 63)" stroke="none" stroke-width="1px">4</text><text x="0" y="0" dx="0em" dy="0.3em" style="text-anchor: end; visibility: hidden; font-family: &quot;Helvetica Neue&quot;, sans-serif; font-size: 12px; font-weight: 200;" fill="rgb(50, 49, 63)" stroke="none" stroke-width="1px">4.5</text></g><line x1="58" y1="0" x2="58" y2="178" fill="rgb(0, 0, 0)" stroke="rgb(204, 204, 204)" stroke-width="1px"></line></g></g><g transform="translate(58, 0)" clip-path="url(#clip_0)"><clipPath id="clip_0"><rect width="272" height="178"></rect></clipPath><g><g><g><line x1="0" y1="0" x2="0" y2="178" fill="rgb(0, 0, 0)" stroke="rgb(60, 60, 60)" stroke-width="1px" opacity="0.25"></line><line x1="22.666666666666664" y1="0" x2="22.666666666666664" y2="178" fill="rgb(0, 0, 0)" stroke="rgb(60, 60, 60)" stroke-width="1px" opacity="0.25"></line><line x1="45.33333333333333" y1="0" x2="45.33333333333333" y2="178" fill="rgb(0, 0, 0)" stroke="rgb(60, 60, 60)" stroke-width="1px" opacity="0.25"></line><line x1="68" y1="0" x2="68" y2="178" fill="rgb(0, 0, 0)" stroke="rgb(60, 60, 60)" stroke-width="1px" opacity="0.25"></line><line x1="90.66666666666666" y1="0" x2="90.66666666666666" y2="178" fill="rgb(0, 0, 0)" stroke="rgb(60, 60, 60)" stroke-width="1px" opacity="0.25"></line><line x1="113.33333333333334" y1="0" x2="113.33333333333334" y2="178" fill="rgb(0, 0, 0)" stroke="rgb(60, 60, 60)" stroke-width="1px" opacity="0.25"></line><line x1="136" y1="0" x2="136" y2="178" fill="rgb(0, 0, 0)" stroke="rgb(60, 60, 60)" stroke-width="1px" opacity="0.25"></line><line x1="158.66666666666669" y1="0" x2="158.66666666666669" y2="178" fill="rgb(0, 0, 0)" stroke="rgb(60, 60, 60)" stroke-width="1px" opacity="0.25"></line><line x1="181.33333333333331" y1="0" x2="181.33333333333331" y2="178" fill="rgb(0, 0, 0)" stroke="rgb(60, 60, 60)" stroke-width="1px" opacity="0.25"></line><line x1="204" y1="0" x2="204" y2="178" fill="rgb(0, 0, 0)" stroke="rgb(60, 60, 60)" stroke-width="1px" opacity="0.25"></line><line x1="226.66666666666669" y1="0" x2="226.66666666666669" y2="178" fill="rgb(0, 0, 0)" stroke="rgb(60, 60, 60)" stroke-width="1px" opacity="0.25"></line><line x1="249.33333333333331" y1="0" x2="249.33333333333331" y2="178" fill="rgb(0, 0, 0)" stroke="rgb(60, 60, 60)" stroke-width="1px" opacity="0.25"></line><line x1="272" y1="0" x2="272" y2="178" fill="rgb(0, 0, 0)" stroke="rgb(60, 60, 60)" stroke-width="1px" opacity="0.25"></line></g><g><line x1="0" y1="178" x2="272" y2="178" fill="rgb(0, 0, 0)" stroke="rgb(60, 60, 60)" stroke-width="1px" opacity="0.25"></line><line x1="0" y1="160.2" x2="272" y2="160.2" fill="rgb(0, 0, 0)" stroke="rgb(60, 60, 60)" stroke-width="1px" opacity="0.25"></line><line x1="0" y1="142.4" x2="272" y2="142.4" fill="rgb(0, 0, 0)" stroke="rgb(60, 60, 60)" stroke-width="1px" opacity="0.25"></line><line x1="0" y1="124.6" x2="272" y2="124.6" fill="rgb(0, 0, 0)" stroke="rgb(60, 60, 60)" stroke-width="1px" opacity="0.25"></line><line x1="0" y1="106.8" x2="272" y2="106.8" fill="rgb(0, 0, 0)" stroke="rgb(60, 60, 60)" stroke-width="1px" opacity="0.25"></line><line x1="0" y1="89" x2="272" y2="89" fill="rgb(0, 0, 0)" stroke="rgb(60, 60, 60)" stroke-width="1px" opacity="0.25"></line><line x1="0" y1="71.2" x2="272" y2="71.2" fill="rgb(0, 0, 0)" stroke="rgb(60, 60, 60)" stroke-width="1px" opacity="0.25"></line><line x1="0" y1="53.400000000000006" x2="272" y2="53.400000000000006" fill="rgb(0, 0, 0)" stroke="rgb(60, 60, 60)" stroke-width="1px" opacity="0.25"></line><line x1="0" y1="35.599999999999994" x2="272" y2="35.599999999999994" fill="rgb(0, 0, 0)" stroke="rgb(60, 60, 60)" stroke-width="1px" opacity="0.25"></line><line x1="0" y1="17.799999999999983" x2="272" y2="17.799999999999983" fill="rgb(0, 0, 0)" stroke="rgb(60, 60, 60)" stroke-width="1px" opacity="0.25"></line><line x1="0" y1="0" x2="272" y2="0" fill="rgb(0, 0, 0)" stroke="rgb(60, 60, 60)" stroke-width="1px" opacity="0.25"></line></g></g></g><g><g><line x1="0" y1="160.2" x2="272" y2="160.2" fill="rgb(0, 0, 0)" stroke="rgb(153, 153, 153)" stroke-width="1.5px"></line></g></g><g><g><line x1="22.666666666666664" y1="0" x2="22.666666666666664" y2="178" fill="rgb(0, 0, 0)" stroke="rgb(153, 153, 153)" stroke-width="1.5px"></line></g></g><g><g><g><g><g><path stroke="rgb(238, 51, 119)" stroke-width="2px" d="M22.666666666666664,8.963827514648443L24.93333333333333,10.854611539840704L27.200000000000003,18.255659825461265L29.46666666666667,27.771758939588807L31.733333333333334,17.877468440633606L34,38.35051130271495L36.266666666666666,49.29202442393736L38.53333333333333,51.80755633922183L40.8,63.47797037964982L43.06666666666666,71.41967346564726L45.33333333333333,77.52657268314839L47.599999999999994,83.00949288473451L49.86666666666666,86.96065108231798L52.13333333333334,78.1445677919558L54.400000000000006,81.31450424876296L56.66666666666667,84.05685675887L58.93333333333334,95.0394992415245L61.2,104.1012449545988L63.46666666666667,109.66287231774265L65.73333333333333,116.95843032479638L68,124.53524624625655L70.26666666666668,130.39338846407833L72.53333333333333,129.6212164182372L74.80000000000001,131.34597455571537L77.06666666666666,136.1143667265374L79.33333333333334,140.27726128470397L81.6,144.0462788746448L83.86666666666667,145.69169122684193L86.13333333333333,147.4715542169424L88.4,148.84360085373757L90.66666666666666,150.564388756395L92.93333333333334,151.88028503426585L95.19999999999999,153.30988881601021L97.46666666666667,154.23931949663626L99.73333333333332,155.46873108669664L102,150.0912736440837L104.26666666666668,153.02939366163017L106.53333333333333,154.2751477815942L108.80000000000001,155.11886829076843L111.06666666666666,155.69711948435497L113.33333333333334,155.75872694021035L115.6,152.94202232800816L117.86666666666667,154.80441855986783L120.13333333333333,155.7522958959783L122.4,156.0806239632498L124.66666666666666,156.46768452216003L126.93333333333334,155.17607979226534L129.2,154.58791704563026L131.46666666666667,153.7373173498261L133.73333333333332,155.30125669618607L136,154.59052272784461L138.26666666666665,153.7882573255739L140.53333333333336,154.77665954761926L142.8,154.93539867361338L145.06666666666666,154.7982957789894L147.33333333333331,156.02456281123185L149.60000000000002,156.8066966482261L151.86666666666667,156.43858117748846L154.13333333333333,156.12990917020767L156.39999999999998,156.54494506987174L158.66666666666669,156.1999629954829L160.93333333333334,156.44960975291337L163.2,155.22682593609096L165.46666666666664,156.4211805751634L167.73333333333335,156.94613358084632L170,157.48128590765162L172.26666666666665,156.29783270944694L174.53333333333336,157.07542355888808L176.8,157.46060949882104L179.06666666666666,156.7417420310988L181.33333333333331,157.83362319995248L183.60000000000002,158.51626985150148L185.86666666666667,158.93325360105973L188.13333333333333,159.1954326494726L190.39999999999998,159.38143121476128L192.66666666666669,159.42366034373734L194.93333333333334,159.45073886087593L197.2,159.4810444958273L199.46666666666664,159.49838961018702L201.73333333333335,159.48262326004254L204,159.49938262273162L206.26666666666665,159.44067032646709L208.53333333333336,159.39182180590376L210.8,159.48392255173292L213.06666666666666,159.4478724930654L215.33333333333331,159.45886467301668L217.60000000000002,159.43466917308461L219.86666666666667,159.4203641982811L222.13333333333333,159.45222078722344L224.39999999999998,159.4857716575958L226.66666666666669,159.46688233320103L228.93333333333334,159.46814271035305L231.2,159.35308409167834L233.46666666666664,159.33591254254284L235.73333333333335,159.4079444280273L238,159.47145887351073L240.26666666666665,159.42895360729716L242.53333333333336,159.37983551378025L244.8,159.4552177688776L247.06666666666666,159.53434050299515" style="fill: none;" fill="none"></path></g><g><path stroke="rgb(51, 187, 238)" stroke-width="2px" d="M22.666666666666664,5.366094589233398L24.93333333333333,10.024505853652954L27.200000000000003,15.055480441268571L29.46666666666667,23.324812764630593L31.733333333333334,35.46028652098508L34,46.996972509344715L36.266666666666666,55.841224445058785L38.53333333333333,62.731691620333905L40.8,67.74836200146552L43.06666666666666,72.20171242501917L45.33333333333333,75.99050148662793L47.599999999999994,78.90002925148812L49.86666666666666,81.9632338543498L52.13333333333334,85.57330334048558L54.400000000000006,89.95299282950032L56.66666666666667,95.11125709199548L58.93333333333334,100.58311897714805L61.2,106.14954901355492L63.46666666666667,111.77900871641052L65.73333333333333,116.45216677089233L68,120.72748883984121L70.26666666666668,124.80178239263938L72.53333333333333,128.59892734369862L74.80000000000001,131.0863772125569L77.06666666666666,134.14619572157153L79.33333333333334,136.64652851796959L81.6,138.99857666644158L83.86666666666667,140.73584356272033L86.13333333333333,143.17360583459347L88.4,144.3321371798813L90.66666666666666,145.5773073277536L92.93333333333334,146.99017150689235L95.19999999999999,148.00886832982485L97.46666666666667,148.82737473991298L99.73333333333332,150.09398585796265L102,150.61335758172672L104.26666666666668,151.17421751013714L106.53333333333333,151.7215968271036L108.80000000000001,151.8335112156941L111.06666666666666,152.20203839246858L113.33333333333334,152.45734337174167L115.6,152.6445064474248L117.86666666666667,152.73699802932447L120.13333333333333,153.25570312972297L122.4,153.76594644930557L124.66666666666666,154.20276760668258L126.93333333333334,154.5482680941395L129.2,154.61105487256026L131.46666666666667,154.5334768981254L133.73333333333332,154.88869588438058L136,155.25257723488616L138.26666666666665,155.4638171169657L140.53333333333336,155.11572178921034L142.8,155.29882812929728L145.06666666666666,155.46156331081744L147.33333333333331,155.53000120985246L149.60000000000002,155.67864270012225L151.86666666666667,155.95068440556915L154.13333333333333,155.91158161831135L156.39999999999998,156.02538952512882L158.66666666666669,156.01754245211686L160.93333333333334,156.08784639149908L163.2,156.11257379716636L165.46666666666664,156.28340581098797L167.73333333333335,156.24244270705938L170,156.35170157303668L172.26666666666665,156.48247670859251L174.53333333333336,156.2154857643256L176.8,156.42205559777076L179.06666666666666,156.51845893840107L181.33333333333331,157.03353479731152L183.60000000000002,157.5829510618929L185.86666666666667,157.949151197057L188.13333333333333,158.18020575462643L190.39999999999998,158.36321961890974L192.66666666666669,158.38404780931066L194.93333333333334,158.59382500414128L197.2,158.6249283097033L199.46666666666664,158.68634883951214L201.73333333333335,158.68094476456085L204,158.68509059843205L206.26666666666665,158.6865799981164L208.53333333333336,158.72511457787795L210.8,158.6949800389221L213.06666666666666,158.69866241855684L215.33333333333331,158.7425969090656L217.60000000000002,158.76714006820893L219.86666666666667,158.7842368969892L222.13333333333333,158.81449122307149L224.39999999999998,158.80795240567593L226.66666666666669,158.81571922639887L228.93333333333334,158.84004537606168L231.2,158.82098186578708L233.46666666666664,158.85221318522906L235.73333333333335,158.83659026038535L238,158.85203305907183L240.26666666666665,158.80282298461873L242.53333333333336,158.72230797550844L244.8,158.7528480717049L247.06666666666666,158.72903360953964" style="fill: none;" fill="none"></path></g></g></g></g><g opacity="0.2"><g><g><g><path stroke="rgb(238, 51, 119)" stroke-width="2px" d="M22.666666666666664,8.963827514648443L24.93333333333333,11.989081954956049L27.200000000000003,25.360666179656988L29.46666666666667,38.96269149780275L31.733333333333334,4.959482765197748L34,66.6720998764038L36.266666666666666,64.93856325149537L38.53333333333333,55.47522602081298L40.8,80.68956422805786L43.06666666666666,83.21217699050904L45.33333333333333,86.63153238296509L47.599999999999994,91.20403537750245L49.86666666666666,92.87448716163635L52.13333333333334,64.93771448135377L54.400000000000006,86.06568279266358L56.66666666666667,88.16845140457153L58.93333333333334,111.50881547927857L61.2,117.69156274795532L63.46666666666667,118.00446610450744L65.73333333333333,127.90110049247741L68,135.90005459785462L70.26666666666668,139.18040902614592L72.53333333333333,128.46297359466553L74.80000000000001,133.93309133052827L77.06666666666666,143.26692109107972L79.33333333333334,146.5215853691101L81.6,149.69979561567305L83.86666666666667,148.15980722904206L86.13333333333333,150.14134706258773L88.4,150.90167005062102L90.66666666666666,153.14557003974915L92.93333333333334,153.85412918925286L95.19999999999999,155.45429431796074L97.46666666666667,155.6334654510021L99.73333333333332,157.31284841895103L102,142.02508761882783L104.26666666666668,157.4365736424923L106.53333333333333,156.14377894997597L108.80000000000001,156.38444904983044L111.06666666666666,156.56449627280236L113.33333333333334,155.8511381238699L115.6,148.71696541309356L117.86666666666667,157.59801290631293L120.13333333333333,157.17411189973353L122.4,156.57311606407166L124.66666666666666,157.04827536046506L126.93333333333334,153.2386726975441L129.2,153.70567292571067L131.46666666666667,152.46141780614852L133.73333333333332,157.64716571569443L136,153.52442177534104L138.26666666666665,152.5848592221737L140.53333333333336,156.25926288068294L142.8,155.17350736260414L145.06666666666666,154.5926414370537L147.33333333333331,157.86396335959435L149.60000000000002,157.97989740371705L151.86666666666667,155.88640797138214L154.13333333333333,155.6669011592865L156.39999999999998,157.1674989193678L158.66666666666669,155.68248988389968L160.93333333333334,156.82407988905908L163.2,153.3926502108574L165.46666666666664,158.212712533772L167.73333333333335,157.73356308937073L170,158.28401439785958L172.26666666666665,154.5226529121399L174.53333333333336,158.24180983304979L176.8,158.0383884087205L179.06666666666666,155.66344082951545L181.33333333333331,159.471444953233L183.60000000000002,159.540239828825L185.86666666666667,159.55872922539712L188.13333333333333,159.5887012220919L190.39999999999998,159.6604290626943L192.66666666666669,159.48700403720142L194.93333333333334,159.49135663658382L197.2,159.52650294825435L199.46666666666664,159.5244072817266L201.73333333333335,159.45897373482586L204,159.52452166676522L206.26666666666665,159.3526018820703L208.53333333333336,159.31854902505876L210.8,159.62207367047668L213.06666666666666,159.3937974050641L215.33333333333331,159.47535294294357L217.60000000000002,159.39837592318653L219.86666666666667,159.39890673607587L222.13333333333333,159.50000567063688L224.39999999999998,159.5360979631543L226.66666666666669,159.43854834660888L228.93333333333334,159.4700332760811L231.2,159.18049616366625L233.46666666666664,159.31015521883964L235.73333333333335,159.51599225625395L238,159.5667305417359L240.26666666666665,159.36519570797682L242.53333333333336,159.30615837350487L244.8,159.5682911515236L247.06666666666666,159.65302460417152" style="fill: none;" fill="none"></path></g><g><path stroke="rgb(51, 187, 238)" stroke-width="2px" d="M22.666666666666664,5.366094589233398L24.93333333333333,12.819552612304705L27.200000000000003,19.88521604537962L29.46666666666667,33.0495475769043L31.733333333333334,51.3043610572815L34,62.95636243820191L36.266666666666666,68.48864622116089L38.53333333333333,72.77805891036988L40.8,75.14697637557984L43.06666666666666,78.81441879272461L45.33333333333333,81.63932104110718L47.599999999999994,83.24848737716675L49.86666666666666,86.54803886413575L52.13333333333334,90.98133506774901L54.400000000000006,96.51737890243531L56.66666666666667,102.84501547813416L58.93333333333334,108.78859629631042L61.2,114.49778075218201L63.46666666666667,120.2223406791687L65.73333333333333,123.4614767074585L68,127.14023747444153L70.26666666666668,130.9130886554718L72.53333333333333,134.29456980228423L74.80000000000001,134.81752254962922L77.06666666666666,138.73590173721314L79.33333333333334,140.39701704978944L81.6,142.526642870903L83.86666666666667,143.34174124002456L86.13333333333333,146.83024699687957L88.4,146.06993355751038L90.66666666666666,147.44506213665008L92.93333333333334,149.10946749448777L95.19999999999999,149.5369134426117L97.46666666666667,150.05513429641724L99.73333333333332,151.99390248060226L102,151.39241515398027L104.26666666666668,152.0155073940754L106.53333333333333,152.542665797472L108.80000000000001,152.00138279795647L111.06666666666666,152.75482915639878L113.33333333333334,152.84030084013938L115.6,152.92525106072426L117.86666666666667,152.87573540210724L120.13333333333333,154.03376078009606L122.4,154.5313114285469L124.66666666666666,154.85799934268L126.93333333333334,155.06651882529258L129.2,154.70523504018783L131.46666666666667,154.41710993647575L133.73333333333332,155.4215243637562L136,155.79839926064014L138.26666666666665,155.7806769400835L140.53333333333336,154.5935787975788L142.8,155.57348763942719L145.06666666666666,155.70566608309747L147.33333333333331,155.63265805840493L149.60000000000002,155.90160493552685L151.86666666666667,156.3587469637394L154.13333333333333,155.85292743742465L156.39999999999998,156.196101385355L158.66666666666669,156.0057718425989L160.93333333333334,156.19330230057238L163.2,156.1496649056673L165.46666666666664,156.53965383172036L167.73333333333335,156.18099805116654L170,156.5155898720026L172.26666666666665,156.67863941192627L174.53333333333336,155.81499934792518L176.8,156.73191034793854L179.06666666666666,156.66306394934654L181.33333333333331,157.80614858567714L183.60000000000002,158.40707545876504L185.86666666666667,158.49845139980317L188.13333333333333,158.52678759098052L190.39999999999998,158.6377404153347L192.66666666666669,158.41529009491205L194.93333333333334,158.90849079638718L197.2,158.6715832680464L199.46666666666664,158.77847963422536L201.73333333333335,158.67283865213395L204,158.69130934923888L206.26666666666665,158.6888140976429L208.53333333333336,158.78291644752025L210.8,158.6497782304883L213.06666666666666,158.704185988009L215.33333333333331,158.8084986448288L217.60000000000002,158.80395480692385L219.86666666666667,158.8098821401596L222.13333333333333,158.8598727121949L224.39999999999998,158.7981441795826L226.66666666666669,158.8273694574833L228.93333333333334,158.87653460055589L231.2,158.79238660037518L233.46666666666664,158.89906016439198L235.73333333333335,158.81315587311983L238,158.87519725710155L240.26666666666665,158.72900787293912L242.53333333333336,158.601535461843L244.8,158.7986582159996L247.06666666666666,158.69331191629172" style="fill: none;" fill="none"></path></g></g></g></g></g></g><g transform="translate(58, 178)" clip-path="url(#clip_1)"><clipPath id="clip_1"><rect width="272" height="22"></rect></clipPath><g><g><line x1="0" y1="0" x2="0" y2="5" style="visibility: inherit;" fill="rgb(0, 0, 0)" stroke="rgb(204, 204, 204)" stroke-width="1px"></line><line x1="22.666666666666664" y1="0" x2="22.666666666666664" y2="5" style="visibility: inherit;" fill="rgb(0, 0, 0)" stroke="rgb(204, 204, 204)" stroke-width="1px"></line><line x1="45.33333333333333" y1="0" x2="45.33333333333333" y2="5" style="visibility: inherit;" fill="rgb(0, 0, 0)" stroke="rgb(204, 204, 204)" stroke-width="1px"></line><line x1="68" y1="0" x2="68" y2="5" style="visibility: inherit;" fill="rgb(0, 0, 0)" stroke="rgb(204, 204, 204)" stroke-width="1px"></line><line x1="90.66666666666666" y1="0" x2="90.66666666666666" y2="5" style="visibility: inherit;" fill="rgb(0, 0, 0)" stroke="rgb(204, 204, 204)" stroke-width="1px"></line><line x1="113.33333333333334" y1="0" x2="113.33333333333334" y2="5" style="visibility: inherit;" fill="rgb(0, 0, 0)" stroke="rgb(204, 204, 204)" stroke-width="1px"></line><line x1="136" y1="0" x2="136" y2="5" style="visibility: inherit;" fill="rgb(0, 0, 0)" stroke="rgb(204, 204, 204)" stroke-width="1px"></line><line x1="158.66666666666669" y1="0" x2="158.66666666666669" y2="5" style="visibility: inherit;" fill="rgb(0, 0, 0)" stroke="rgb(204, 204, 204)" stroke-width="1px"></line><line x1="181.33333333333331" y1="0" x2="181.33333333333331" y2="5" style="visibility: inherit;" fill="rgb(0, 0, 0)" stroke="rgb(204, 204, 204)" stroke-width="1px"></line><line x1="204" y1="0" x2="204" y2="5" style="visibility: inherit;" fill="rgb(0, 0, 0)" stroke="rgb(204, 204, 204)" stroke-width="1px"></line><line x1="226.66666666666669" y1="0" x2="226.66666666666669" y2="5" style="visibility: inherit;" fill="rgb(0, 0, 0)" stroke="rgb(204, 204, 204)" stroke-width="1px"></line><line x1="249.33333333333331" y1="0" x2="249.33333333333331" y2="5" style="visibility: inherit;" fill="rgb(0, 0, 0)" stroke="rgb(204, 204, 204)" stroke-width="1px"></line><line x1="272" y1="0" x2="272" y2="5" style="visibility: inherit;" fill="rgb(0, 0, 0)" stroke="rgb(204, 204, 204)" stroke-width="1px"></line></g><g transform="translate(0, 8)"><text x="0" y="0" dx="0em" dy="0.95em" style="text-anchor: middle; visibility: hidden; font-family: &quot;Helvetica Neue&quot;, sans-serif; font-size: 12px; font-weight: 200;" fill="rgb(50, 49, 63)" stroke="none" stroke-width="1px">-10</text><text x="22.666666666666664" y="0" dx="0em" dy="0.95em" style="text-anchor: middle; visibility: inherit; font-family: &quot;Helvetica Neue&quot;, sans-serif; font-size: 12px; font-weight: 200;" fill="rgb(50, 49, 63)" stroke="none" stroke-width="1px">0</text><text x="45.33333333333333" y="0" dx="0em" dy="0.95em" style="text-anchor: middle; visibility: inherit; font-family: &quot;Helvetica Neue&quot;, sans-serif; font-size: 12px; font-weight: 200;" fill="rgb(50, 49, 63)" stroke="none" stroke-width="1px">10</text><text x="68" y="0" dx="0em" dy="0.95em" style="text-anchor: middle; visibility: inherit; font-family: &quot;Helvetica Neue&quot;, sans-serif; font-size: 12px; font-weight: 200;" fill="rgb(50, 49, 63)" stroke="none" stroke-width="1px">20</text><text x="90.66666666666666" y="0" dx="0em" dy="0.95em" style="text-anchor: middle; visibility: inherit; font-family: &quot;Helvetica Neue&quot;, sans-serif; font-size: 12px; font-weight: 200;" fill="rgb(50, 49, 63)" stroke="none" stroke-width="1px">30</text><text x="113.33333333333334" y="0" dx="0em" dy="0.95em" style="text-anchor: middle; visibility: inherit; font-family: &quot;Helvetica Neue&quot;, sans-serif; font-size: 12px; font-weight: 200;" fill="rgb(50, 49, 63)" stroke="none" stroke-width="1px">40</text><text x="136" y="0" dx="0em" dy="0.95em" style="text-anchor: middle; visibility: inherit; font-family: &quot;Helvetica Neue&quot;, sans-serif; font-size: 12px; font-weight: 200;" fill="rgb(50, 49, 63)" stroke="none" stroke-width="1px">50</text><text x="158.66666666666669" y="0" dx="0em" dy="0.95em" style="text-anchor: middle; visibility: inherit; font-family: &quot;Helvetica Neue&quot;, sans-serif; font-size: 12px; font-weight: 200;" fill="rgb(50, 49, 63)" stroke="none" stroke-width="1px">60</text><text x="181.33333333333331" y="0" dx="0em" dy="0.95em" style="text-anchor: middle; visibility: inherit; font-family: &quot;Helvetica Neue&quot;, sans-serif; font-size: 12px; font-weight: 200;" fill="rgb(50, 49, 63)" stroke="none" stroke-width="1px">70</text><text x="204" y="0" dx="0em" dy="0.95em" style="text-anchor: middle; visibility: inherit; font-family: &quot;Helvetica Neue&quot;, sans-serif; font-size: 12px; font-weight: 200;" fill="rgb(50, 49, 63)" stroke="none" stroke-width="1px">80</text><text x="226.66666666666669" y="0" dx="0em" dy="0.95em" style="text-anchor: middle; visibility: inherit; font-family: &quot;Helvetica Neue&quot;, sans-serif; font-size: 12px; font-weight: 200;" fill="rgb(50, 49, 63)" stroke="none" stroke-width="1px">90</text><text x="249.33333333333331" y="0" dx="0em" dy="0.95em" style="text-anchor: middle; visibility: inherit; font-family: &quot;Helvetica Neue&quot;, sans-serif; font-size: 12px; font-weight: 200;" fill="rgb(50, 49, 63)" stroke="none" stroke-width="1px">100</text><text x="272" y="0" dx="0em" dy="0.95em" style="text-anchor: middle; visibility: hidden; font-family: &quot;Helvetica Neue&quot;, sans-serif; font-size: 12px; font-weight: 200;" fill="rgb(50, 49, 63)" stroke="none" stroke-width="1px">110</text></g><line x1="0" y1="0" x2="272" y2="0" fill="rgb(0, 0, 0)" stroke="rgb(204, 204, 204)" stroke-width="1px"></line></g></g></g></g></svg>